# MagicaVoxel @ Ephtracy

# group
o 

# material
mtllib Nha-10.mtl
usemtl palette

# normals
vn -1 0 0
vn 1 0 0
vn 0 0 1
vn 0 0 -1
vn 0 -1 0
vn 0 1 0

# texcoords
vt 0.564453 0.5
vt 0.568359 0.5
vt 0.572266 0.5
vt 0.576172 0.5
vt 0.580078 0.5
vt 0.583984 0.5
vt 0.587891 0.5

# verts
v -2.5 4.6 -7.9
v -2.5 4.6 -9.4
v -2.5 4.7 -7.9
v -2.5 4.7 -9.4
v -2.5 4.8 -7.9
v -2.5 4.8 -9.4
v -1.5 4.8 -7.9
v -1.5 4.8 -9.4
v -1.5 4.9 -7.9
v -1.5 4.9 -9.4
v 1.1 4.6 -10.1
v 1.1 4.6 -11.5
v 1.1 4.7 -10.3
v 1.1 4.7 -10.4
v 1.1 4.7 -10.6
v 1.1 4.7 -10.7
v 1.1 4.7 -10.9
v 1.1 4.7 -11
v 1.1 4.7 -11.2
v 1.1 4.7 -11.3
v 1.1 4.8 -10.2
v 1.1 4.8 -10.3
v 1.1 4.8 -10.4
v 1.1 4.8 -10.5
v 1.1 4.8 -10.6
v 1.1 4.8 -10.7
v 1.1 4.8 -10.8
v 1.1 4.8 -10.9
v 1.1 4.8 -11
v 1.1 4.8 -11.1
v 1.1 4.8 -11.2
v 1.1 4.8 -11.3
v 1.1 4.8 -11.4
v 1.1 4.9 -10.2
v 1.1 4.9 -10.3
v 1.1 4.9 -10.5
v 1.1 4.9 -10.6
v 1.1 4.9 -10.8
v 1.1 4.9 -10.9
v 1.1 4.9 -11.1
v 1.1 4.9 -11.2
v 1.1 4.9 -11.3
v 1.1 4.9 -11.4
v 1.1 5 -10.1
v 1.1 5 -11.5
v 1.2 5.3 -10.1
v 1.2 5.3 -11.3
v 1.2 5.4 -10.3
v 1.2 5.4 -10.4
v 1.2 5.4 -10.5
v 1.2 5.4 -10.6
v 1.2 5.4 -10.7
v 1.2 5.4 -10.8
v 1.2 5.4 -10.9
v 1.2 5.4 -11
v 1.2 5.4 -11.1
v 1.2 5.4 -11.2
v 1.2 5.5 -10.3
v 1.2 5.5 -10.4
v 1.2 5.5 -10.5
v 1.2 5.5 -10.6
v 1.2 5.5 -10.7
v 1.2 5.5 -10.8
v 1.2 5.5 -10.9
v 1.2 5.5 -11
v 1.2 5.5 -11.1
v 1.2 5.5 -11.2
v 1.2 5.6 -10.1
v 1.2 5.6 -11.3
v 1.3 5 -10.2
v 1.3 5 -11.4
v 1.3 5.3 -10.2
v 1.3 5.3 -11.3
v 1.3 5.3 -11.4
v -1.4 4.6 -7.9
v -1.4 4.6 -9.4
v -1.4 4.7 -7.9
v -1.4 4.7 -9.4
v -0.5 4.7 -7.9
v -0.5 4.7 -9.4
v -0.5 4.8 -7.9
v -0.5 4.8 -9.4
v -0.5 4.9 -7.9
v -0.5 4.9 -9.4
v 2.3 4.6 -10.1
v 2.3 4.6 -11.5
v 2.3 4.7 -10.1
v 2.3 4.7 -11.5
v 2.3 4.8 -10.1
v 2.3 4.8 -11.5
v 2.3 4.9 -10.1
v 2.3 4.9 -11.5
v 2.3 5 -10.1
v 2.3 5 -10.2
v 2.3 5 -11.4
v 2.3 5 -11.5
v 2.3 5.1 -10.2
v 2.3 5.1 -11.4
v 2.3 5.2 -10.2
v 2.3 5.2 -11.4
v 2.3 5.3 -10.1
v 2.3 5.3 -10.2
v 2.3 5.3 -11.3
v 2.3 5.3 -11.4
v 2.3 5.4 -10.1
v 2.3 5.4 -11.3
v 2.3 5.5 -10.1
v 2.3 5.5 -11.3
v 2.3 5.6 -10.1
v 2.3 5.6 -11.3
v -2.5 4.6 -7.9
v -2.5 4.7 -7.9
v -2.5 4.8 -7.9
v -1.6 4.6 -7.9
v -1.6 4.7 -7.9
v -1.5 4.6 -7.9
v -1.5 4.7 -7.9
v -1.5 4.8 -7.9
v -1.5 4.9 -7.9
v -1.4 4.6 -7.9
v -1.4 4.7 -7.9
v -1.4 4.8 -7.9
v -0.5 4.7 -7.9
v -0.5 4.8 -7.9
v -0.5 4.9 -7.9
v 1.1 4.6 -10.1
v 1.1 5 -10.1
v 1.2 4.7 -10.1
v 1.2 4.8 -10.1
v 1.2 4.9 -10.1
v 1.2 5.3 -10.1
v 1.2 5.6 -10.1
v 1.3 5.4 -10.1
v 1.3 5.5 -10.1
v 2.3 4.6 -10.1
v 2.3 4.7 -10.1
v 2.3 4.8 -10.1
v 2.3 4.9 -10.1
v 2.3 5 -10.1
v 2.3 5.3 -10.1
v 2.3 5.4 -10.1
v 2.3 5.5 -10.1
v 2.3 5.6 -10.1
v 1.3 5 -10.2
v 1.3 5.3 -10.2
v 1.4 5.1 -10.2
v 1.4 5.2 -10.2
v 2.3 5 -10.2
v 2.3 5.1 -10.2
v 2.3 5.2 -10.2
v 2.3 5.3 -10.2
v -2.5 4.6 -9.4
v -2.5 4.7 -9.4
v -2.5 4.8 -9.4
v -1.6 4.6 -9.4
v -1.6 4.7 -9.4
v -1.5 4.6 -9.4
v -1.5 4.7 -9.4
v -1.5 4.8 -9.4
v -1.5 4.9 -9.4
v -1.4 4.6 -9.4
v -1.4 4.7 -9.4
v -1.4 4.8 -9.4
v -0.5 4.7 -9.4
v -0.5 4.8 -9.4
v -0.5 4.9 -9.4
v 1.2 5.3 -11.3
v 1.2 5.6 -11.3
v 1.3 5.3 -11.3
v 1.3 5.4 -11.3
v 1.3 5.5 -11.3
v 2.3 5.3 -11.3
v 2.3 5.4 -11.3
v 2.3 5.5 -11.3
v 2.3 5.6 -11.3
v 1.3 5 -11.4
v 1.3 5.3 -11.4
v 1.4 5.1 -11.4
v 1.4 5.2 -11.4
v 2.3 5 -11.4
v 2.3 5.1 -11.4
v 2.3 5.2 -11.4
v 2.3 5.3 -11.4
v 1.1 4.6 -11.5
v 1.1 5 -11.5
v 1.2 4.7 -11.5
v 1.2 4.8 -11.5
v 1.2 4.9 -11.5
v 2.3 4.6 -11.5
v 2.3 4.7 -11.5
v 2.3 4.8 -11.5
v 2.3 4.9 -11.5
v 2.3 5 -11.5
v -2.5 4.6 -7.9
v -1.6 4.6 -7.9
v -1.5 4.6 -7.9
v -1.4 4.6 -7.9
v -2.5 4.6 -9.4
v -1.6 4.6 -9.4
v -1.5 4.6 -9.4
v -1.4 4.6 -9.4
v 1.1 4.6 -10.1
v 2.3 4.6 -10.1
v 1.2 4.6 -10.2
v 2.2 4.6 -10.2
v 1.2 4.6 -11.4
v 2.2 4.6 -11.4
v 1.1 4.6 -11.5
v 2.3 4.6 -11.5
v -1.4 4.7 -7.9
v -0.5 4.7 -7.9
v -1.4 4.7 -9.4
v -0.5 4.7 -9.4
v 1.2 5.3 -10.1
v 2.3 5.3 -10.1
v 1.3 5.3 -10.2
v 2.3 5.3 -10.2
v 1.2 5.3 -11.3
v 1.3 5.3 -11.3
v -2.5 4.8 -7.9
v -1.5 4.8 -7.9
v -2.1 4.8 -8.2
v -2 4.8 -8.2
v -2.1 4.8 -8.3
v -2 4.8 -8.3
v -1.9 4.8 -8.4
v -1.8 4.8 -8.4
v -2.4 4.8 -8.5
v -2.3 4.8 -8.5
v -1.9 4.8 -8.5
v -1.8 4.8 -8.5
v -1.7 4.8 -8.5
v -2.4 4.8 -8.6
v -2.3 4.8 -8.6
v -2.2 4.8 -8.6
v -2.1 4.8 -8.6
v -1.9 4.8 -8.6
v -1.8 4.8 -8.6
v -1.7 4.8 -8.6
v -2.4 4.8 -8.7
v -2.3 4.8 -8.7
v -2.2 4.8 -8.7
v -2.1 4.8 -8.7
v -2 4.8 -8.7
v -1.9 4.8 -8.7
v -1.8 4.8 -8.7
v -2.4 4.8 -8.8
v -2.3 4.8 -8.8
v -2 4.8 -8.8
v -1.9 4.8 -8.8
v -2.3 4.8 -8.9
v -2.1 4.8 -8.9
v -2 4.8 -8.9
v -1.9 4.8 -8.9
v -1.8 4.8 -8.9
v -1.7 4.8 -8.9
v -2.3 4.8 -9
v -2.1 4.8 -9
v -2 4.8 -9
v -1.9 4.8 -9
v -1.8 4.8 -9
v -1.7 4.8 -9
v -2.4 4.8 -9.1
v -2.3 4.8 -9.1
v -2.2 4.8 -9.1
v -1.9 4.8 -9.1
v -1.8 4.8 -9.1
v -1.7 4.8 -9.1
v -2.4 4.8 -9.2
v -2.3 4.8 -9.2
v -2.2 4.8 -9.2
v -1.9 4.8 -9.2
v -1.8 4.8 -9.2
v -1.7 4.8 -9.2
v -2.5 4.8 -9.4
v -1.5 4.8 -9.4
v -1.5 4.9 -7.9
v -0.5 4.9 -7.9
v -1 4.9 -8.9
v -0.9 4.9 -8.9
v -0.8 4.9 -8.9
v -0.7 4.9 -8.9
v -1 4.9 -9
v -0.9 4.9 -9
v -0.8 4.9 -9
v -0.7 4.9 -9
v -1.4 4.9 -9.1
v -1.3 4.9 -9.1
v -1.1 4.9 -9.1
v -0.9 4.9 -9.1
v -0.8 4.9 -9.1
v -0.7 4.9 -9.1
v -1.4 4.9 -9.2
v -1.3 4.9 -9.2
v -1.1 4.9 -9.2
v -0.9 4.9 -9.2
v -0.8 4.9 -9.2
v -0.7 4.9 -9.2
v -1.5 4.9 -9.4
v -0.5 4.9 -9.4
v 1.1 5 -10.1
v 2.3 5 -10.1
v 1.3 5 -10.2
v 2.3 5 -10.2
v 1.3 5 -11.4
v 2.3 5 -11.4
v 1.1 5 -11.5
v 2.3 5 -11.5
v 1.3 5.3 -11.3
v 2.3 5.3 -11.3
v 1.3 5.3 -11.4
v 2.3 5.3 -11.4
v 1.2 5.6 -10.1
v 2.3 5.6 -10.1
v 1.3 5.6 -10.2
v 1.5 5.6 -10.2
v 1.6 5.6 -10.2
v 1.9 5.6 -10.2
v 2 5.6 -10.2
v 2.2 5.6 -10.2
v 1.4 5.6 -10.3
v 1.5 5.6 -10.3
v 1.6 5.6 -10.3
v 1.7 5.6 -10.3
v 1.8 5.6 -10.3
v 1.9 5.6 -10.3
v 2 5.6 -10.3
v 2.1 5.6 -10.3
v 1.5 5.6 -10.4
v 1.6 5.6 -10.4
v 1.7 5.6 -10.4
v 1.8 5.6 -10.4
v 1.9 5.6 -10.4
v 2 5.6 -10.4
v 2.1 5.6 -10.4
v 2.2 5.6 -10.4
v 1.5 5.6 -10.5
v 1.6 5.6 -10.5
v 1.7 5.6 -10.5
v 1.8 5.6 -10.5
v 1.9 5.6 -10.5
v 2 5.6 -10.5
v 1.5 5.6 -10.6
v 1.6 5.6 -10.6
v 1.7 5.6 -10.6
v 1.8 5.6 -10.6
v 1.9 5.6 -10.6
v 2 5.6 -10.6
v 1.5 5.6 -10.7
v 1.6 5.6 -10.7
v 1.9 5.6 -10.7
v 2 5.6 -10.7
v 1.5 5.6 -10.8
v 1.6 5.6 -10.8
v 1.7 5.6 -10.8
v 1.8 5.6 -10.8
v 1.9 5.6 -10.8
v 2 5.6 -10.8
v 1.5 5.6 -10.9
v 1.6 5.6 -10.9
v 1.9 5.6 -10.9
v 2 5.6 -10.9
v 1.5 5.6 -11
v 1.6 5.6 -11
v 1.7 5.6 -11
v 1.8 5.6 -11
v 1.9 5.6 -11
v 2 5.6 -11
v 2.1 5.6 -11
v 2.2 5.6 -11
v 1.4 5.6 -11.1
v 1.5 5.6 -11.1
v 1.6 5.6 -11.1
v 1.7 5.6 -11.1
v 1.8 5.6 -11.1
v 1.9 5.6 -11.1
v 2 5.6 -11.1
v 2.1 5.6 -11.1
v 1.3 5.6 -11.2
v 1.5 5.6 -11.2
v 1.6 5.6 -11.2
v 1.9 5.6 -11.2
v 2 5.6 -11.2
v 2.2 5.6 -11.2
v 1.2 5.6 -11.3
v 2.3 5.6 -11.3

# faces
f 3/1/1 2/1/1 1/1/1
f 4/1/1 2/1/1 3/1/1
f 5/2/1 4/2/1 3/2/1
f 6/2/1 4/2/1 5/2/1
f 9/2/1 8/2/1 7/2/1
f 10/2/1 8/2/1 9/2/1
f 13/6/1 12/6/1 11/6/1
f 14/6/1 12/6/1 13/6/1
f 15/6/1 12/6/1 14/6/1
f 16/6/1 12/6/1 15/6/1
f 17/6/1 12/6/1 16/6/1
f 18/6/1 12/6/1 17/6/1
f 19/6/1 12/6/1 18/6/1
f 20/6/1 12/6/1 19/6/1
f 21/6/1 13/6/1 11/6/1
f 22/2/1 14/2/1 13/2/1
f 22/6/1 13/6/1 21/6/1
f 23/6/1 15/6/1 14/6/1
f 23/2/1 14/2/1 22/2/1
f 24/6/1 15/6/1 23/6/1
f 25/2/1 16/2/1 15/2/1
f 25/6/1 15/6/1 24/6/1
f 26/6/1 17/6/1 16/6/1
f 26/2/1 16/2/1 25/2/1
f 27/6/1 17/6/1 26/6/1
f 28/2/1 18/2/1 17/2/1
f 28/6/1 17/6/1 27/6/1
f 29/6/1 19/6/1 18/6/1
f 29/2/1 18/2/1 28/2/1
f 30/6/1 19/6/1 29/6/1
f 31/2/1 20/2/1 19/2/1
f 31/6/1 19/6/1 30/6/1
f 32/6/1 12/6/1 20/6/1
f 32/2/1 20/2/1 31/2/1
f 33/6/1 12/6/1 32/6/1
f 34/6/1 21/6/1 11/6/1
f 34/2/1 22/2/1 21/2/1
f 35/6/1 24/6/1 23/6/1
f 35/2/1 22/2/1 34/2/1
f 35/6/1 23/6/1 22/6/1
f 36/2/1 25/2/1 24/2/1
f 36/6/1 24/6/1 35/6/1
f 37/6/1 27/6/1 26/6/1
f 37/2/1 25/2/1 36/2/1
f 37/6/1 26/6/1 25/6/1
f 38/2/1 28/2/1 27/2/1
f 38/6/1 27/6/1 37/6/1
f 39/6/1 30/6/1 29/6/1
f 39/2/1 28/2/1 38/2/1
f 39/6/1 29/6/1 28/6/1
f 40/2/1 31/2/1 30/2/1
f 40/6/1 30/6/1 39/6/1
f 41/6/1 32/6/1 31/6/1
f 41/2/1 31/2/1 40/2/1
f 42/2/1 33/2/1 32/2/1
f 42/6/1 32/6/1 41/6/1
f 43/6/1 12/6/1 33/6/1
f 43/2/1 33/2/1 42/2/1
f 44/6/1 39/6/1 38/6/1
f 44/6/1 42/6/1 41/6/1
f 44/6/1 43/6/1 42/6/1
f 44/6/1 40/6/1 39/6/1
f 44/6/1 38/6/1 37/6/1
f 44/6/1 37/6/1 36/6/1
f 44/6/1 36/6/1 35/6/1
f 44/6/1 35/6/1 34/6/1
f 44/6/1 34/6/1 11/6/1
f 44/6/1 41/6/1 40/6/1
f 45/6/1 12/6/1 43/6/1
f 45/6/1 43/6/1 44/6/1
f 48/3/1 47/3/1 46/3/1
f 49/3/1 47/3/1 48/3/1
f 50/3/1 47/3/1 49/3/1
f 51/3/1 47/3/1 50/3/1
f 52/3/1 47/3/1 51/3/1
f 53/3/1 47/3/1 52/3/1
f 54/3/1 47/3/1 53/3/1
f 55/3/1 47/3/1 54/3/1
f 56/3/1 47/3/1 55/3/1
f 57/3/1 47/3/1 56/3/1
f 58/3/1 48/3/1 46/3/1
f 58/5/1 49/5/1 48/5/1
f 59/3/1 50/3/1 49/3/1
f 59/5/1 49/5/1 58/5/1
f 60/5/1 51/5/1 50/5/1
f 60/3/1 50/3/1 59/3/1
f 61/3/1 52/3/1 51/3/1
f 61/5/1 51/5/1 60/5/1
f 62/5/1 53/5/1 52/5/1
f 62/3/1 52/3/1 61/3/1
f 63/3/1 54/3/1 53/3/1
f 63/5/1 53/5/1 62/5/1
f 64/5/1 55/5/1 54/5/1
f 64/3/1 54/3/1 63/3/1
f 65/3/1 56/3/1 55/3/1
f 65/5/1 55/5/1 64/5/1
f 66/5/1 57/5/1 56/5/1
f 66/3/1 56/3/1 65/3/1
f 67/3/1 47/3/1 57/3/1
f 67/5/1 57/5/1 66/5/1
f 68/3/1 66/3/1 65/3/1
f 68/3/1 65/3/1 64/3/1
f 68/3/1 67/3/1 66/3/1
f 68/3/1 64/3/1 63/3/1
f 68/3/1 63/3/1 62/3/1
f 68/3/1 62/3/1 61/3/1
f 68/3/1 61/3/1 60/3/1
f 68/3/1 60/3/1 59/3/1
f 68/3/1 59/3/1 58/3/1
f 68/3/1 58/3/1 46/3/1
f 69/3/1 47/3/1 67/3/1
f 69/3/1 67/3/1 68/3/1
f 72/1/1 71/1/1 70/1/1
f 73/1/1 71/1/1 72/1/1
f 74/1/1 71/1/1 73/1/1
f 75/1/2 76/1/2 77/1/2
f 77/1/2 76/1/2 78/1/2
f 79/1/2 80/1/2 81/1/2
f 81/1/2 80/1/2 82/1/2
f 81/2/2 82/2/2 83/2/2
f 83/2/2 82/2/2 84/2/2
f 85/6/2 86/6/2 87/6/2
f 87/6/2 86/6/2 88/6/2
f 87/5/2 88/5/2 89/5/2
f 89/5/2 88/5/2 90/5/2
f 89/2/2 90/2/2 91/2/2
f 91/2/2 90/2/2 92/2/2
f 91/6/2 92/6/2 93/6/2
f 93/6/2 92/6/2 94/6/2
f 94/6/2 92/6/2 95/6/2
f 95/6/2 92/6/2 96/6/2
f 94/1/2 95/1/2 97/1/2
f 97/1/2 95/1/2 98/1/2
f 97/5/2 98/5/2 99/5/2
f 99/5/2 98/5/2 100/5/2
f 99/1/2 100/1/2 102/1/2
f 102/1/2 100/1/2 103/1/2
f 103/1/2 100/1/2 104/1/2
f 101/3/2 102/3/2 105/3/2
f 102/3/2 103/3/2 105/3/2
f 105/3/2 103/3/2 106/3/2
f 105/2/2 106/2/2 107/2/2
f 107/2/2 106/2/2 108/2/2
f 107/3/2 108/3/2 109/3/2
f 109/3/2 108/3/2 110/3/2
f 114/1/3 112/1/3 111/1/3
f 115/2/3 113/2/3 112/2/3
f 115/1/3 112/1/3 114/1/3
f 116/3/3 115/3/3 114/3/3
f 117/2/3 113/2/3 115/2/3
f 117/3/3 115/3/3 116/3/3
f 118/2/3 113/2/3 117/2/3
f 120/1/3 117/1/3 116/1/3
f 121/3/3 118/3/3 117/3/3
f 121/1/3 117/1/3 120/1/3
f 122/2/3 119/2/3 118/2/3
f 122/3/3 118/3/3 121/3/3
f 123/1/3 122/1/3 121/1/3
f 124/2/3 119/2/3 122/2/3
f 124/1/3 122/1/3 123/1/3
f 125/2/3 119/2/3 124/2/3
f 128/6/3 127/6/3 126/6/3
f 129/6/3 127/6/3 128/6/3
f 130/6/3 127/6/3 129/6/3
f 133/3/3 132/3/3 131/3/3
f 134/3/3 132/3/3 133/3/3
f 135/6/3 128/6/3 126/6/3
f 136/5/3 129/5/3 128/5/3
f 136/6/3 128/6/3 135/6/3
f 137/2/3 130/2/3 129/2/3
f 137/5/3 129/5/3 136/5/3
f 138/6/3 127/6/3 130/6/3
f 138/2/3 130/2/3 137/2/3
f 139/6/3 127/6/3 138/6/3
f 140/3/3 133/3/3 131/3/3
f 141/2/3 134/2/3 133/2/3
f 141/3/3 133/3/3 140/3/3
f 142/3/3 132/3/3 134/3/3
f 142/2/3 134/2/3 141/2/3
f 143/3/3 132/3/3 142/3/3
f 146/1/3 145/1/3 144/1/3
f 147/1/3 145/1/3 146/1/3
f 148/1/3 146/1/3 144/1/3
f 149/5/3 147/5/3 146/5/3
f 149/1/3 146/1/3 148/1/3
f 150/1/3 145/1/3 147/1/3
f 150/5/3 147/5/3 149/5/3
f 151/1/3 145/1/3 150/1/3
f 152/1/4 153/1/4 155/1/4
f 153/2/4 154/2/4 156/2/4
f 155/1/4 153/1/4 156/1/4
f 155/3/4 156/3/4 157/3/4
f 156/2/4 154/2/4 158/2/4
f 157/3/4 156/3/4 158/3/4
f 158/2/4 154/2/4 159/2/4
f 157/1/4 158/1/4 161/1/4
f 158/3/4 159/3/4 162/3/4
f 161/1/4 158/1/4 162/1/4
f 159/2/4 160/2/4 163/2/4
f 162/3/4 159/3/4 163/3/4
f 162/1/4 163/1/4 164/1/4
f 163/2/4 160/2/4 165/2/4
f 164/1/4 163/1/4 165/1/4
f 165/2/4 160/2/4 166/2/4
f 167/3/4 168/3/4 169/3/4
f 169/3/4 168/3/4 170/3/4
f 170/3/4 168/3/4 171/3/4
f 169/3/4 170/3/4 172/3/4
f 170/2/4 171/2/4 173/2/4
f 172/3/4 170/3/4 173/3/4
f 171/3/4 168/3/4 174/3/4
f 173/2/4 171/2/4 174/2/4
f 174/3/4 168/3/4 175/3/4
f 176/1/4 177/1/4 178/1/4
f 178/1/4 177/1/4 179/1/4
f 176/1/4 178/1/4 180/1/4
f 178/5/4 179/5/4 181/5/4
f 180/1/4 178/1/4 181/1/4
f 179/1/4 177/1/4 182/1/4
f 181/5/4 179/5/4 182/5/4
f 182/1/4 177/1/4 183/1/4
f 184/6/4 185/6/4 186/6/4
f 186/6/4 185/6/4 187/6/4
f 187/6/4 185/6/4 188/6/4
f 184/6/4 186/6/4 189/6/4
f 186/5/4 187/5/4 190/5/4
f 189/6/4 186/6/4 190/6/4
f 187/2/4 188/2/4 191/2/4
f 190/5/4 187/5/4 191/5/4
f 188/6/4 185/6/4 192/6/4
f 191/2/4 188/2/4 192/2/4
f 192/6/4 185/6/4 193/6/4
f 198/1/5 195/1/5 194/1/5
f 199/3/5 196/3/5 195/3/5
f 199/1/5 195/1/5 198/1/5
f 200/1/5 197/1/5 196/1/5
f 200/3/5 196/3/5 199/3/5
f 201/1/5 197/1/5 200/1/5
f 204/6/5 203/6/5 202/6/5
f 205/6/5 203/6/5 204/6/5
f 206/6/5 204/6/5 202/6/5
f 206/1/5 205/1/5 204/1/5
f 207/6/5 203/6/5 205/6/5
f 207/1/5 205/1/5 206/1/5
f 208/6/5 206/6/5 202/6/5
f 208/6/5 207/6/5 206/6/5
f 209/6/5 203/6/5 207/6/5
f 209/6/5 207/6/5 208/6/5
f 212/1/5 211/1/5 210/1/5
f 213/1/5 211/1/5 212/1/5
f 216/3/5 215/3/5 214/3/5
f 217/3/5 215/3/5 216/3/5
f 218/3/5 216/3/5 214/3/5
f 219/3/5 216/3/5 218/3/5
f 220/2/6 221/2/6 222/2/6
f 222/2/6 221/2/6 223/2/6
f 220/2/6 222/2/6 224/2/6
f 222/7/6 223/7/6 224/7/6
f 223/2/6 221/2/6 225/2/6
f 224/7/6 223/7/6 225/7/6
f 224/2/6 225/2/6 226/2/6
f 225/2/6 221/2/6 226/2/6
f 226/2/6 221/2/6 227/2/6
f 220/2/6 224/2/6 228/2/6
f 224/2/6 226/2/6 228/2/6
f 228/2/6 226/2/6 229/2/6
f 226/7/6 227/7/6 230/7/6
f 229/2/6 226/2/6 230/2/6
f 227/2/6 221/2/6 231/2/6
f 230/7/6 227/7/6 231/7/6
f 231/2/6 221/2/6 232/2/6
f 228/4/6 229/4/6 233/4/6
f 220/2/6 228/2/6 233/2/6
f 229/2/6 230/2/6 234/2/6
f 233/4/6 229/4/6 234/4/6
f 230/2/6 231/2/6 234/2/6
f 234/2/6 231/2/6 235/2/6
f 235/2/6 231/2/6 236/2/6
f 236/2/6 231/2/6 237/2/6
f 231/7/6 232/7/6 238/7/6
f 237/2/6 231/2/6 238/2/6
f 232/2/6 221/2/6 239/2/6
f 238/7/6 232/7/6 239/7/6
f 220/2/6 233/2/6 240/2/6
f 233/2/6 234/2/6 240/2/6
f 234/2/6 235/2/6 240/2/6
f 240/2/6 235/2/6 241/2/6
f 235/7/6 236/7/6 242/7/6
f 241/2/6 235/2/6 242/2/6
f 236/2/6 237/2/6 243/2/6
f 242/7/6 236/7/6 243/7/6
f 243/2/6 237/2/6 244/2/6
f 237/7/6 238/7/6 245/7/6
f 244/2/6 237/2/6 245/2/6
f 238/2/6 239/2/6 246/2/6
f 245/7/6 238/7/6 246/7/6
f 240/4/6 241/4/6 247/4/6
f 220/2/6 240/2/6 247/2/6
f 243/2/6 244/2/6 248/2/6
f 247/4/6 241/4/6 248/4/6
f 241/2/6 242/2/6 248/2/6
f 242/2/6 243/2/6 248/2/6
f 244/7/6 245/7/6 249/7/6
f 248/2/6 244/2/6 249/2/6
f 245/2/6 246/2/6 250/2/6
f 249/7/6 245/7/6 250/7/6
f 248/2/6 249/2/6 251/2/6
f 247/2/6 248/2/6 251/2/6
f 249/2/6 250/2/6 251/2/6
f 251/2/6 250/2/6 252/2/6
f 252/2/6 250/2/6 253/2/6
f 250/2/6 246/2/6 254/2/6
f 253/2/6 250/2/6 254/2/6
f 246/2/6 239/2/6 255/2/6
f 254/2/6 246/2/6 255/2/6
f 239/2/6 221/2/6 256/2/6
f 255/2/6 239/2/6 256/2/6
f 247/2/6 251/2/6 257/2/6
f 251/4/6 252/4/6 257/4/6
f 252/2/6 253/2/6 258/2/6
f 257/4/6 252/4/6 258/4/6
f 253/4/6 254/4/6 259/4/6
f 258/2/6 253/2/6 259/2/6
f 254/2/6 255/2/6 260/2/6
f 259/4/6 254/4/6 260/4/6
f 255/4/6 256/4/6 261/4/6
f 260/2/6 255/2/6 261/2/6
f 256/2/6 221/2/6 262/2/6
f 261/4/6 256/4/6 262/4/6
f 258/2/6 259/2/6 263/2/6
f 220/2/6 247/2/6 263/2/6
f 261/2/6 262/2/6 263/2/6
f 259/2/6 260/2/6 263/2/6
f 260/2/6 261/2/6 263/2/6
f 257/2/6 258/2/6 263/2/6
f 247/2/6 257/2/6 263/2/6
f 263/2/6 262/2/6 264/2/6
f 264/2/6 262/2/6 265/2/6
f 265/2/6 262/2/6 266/2/6
f 266/2/6 262/2/6 267/2/6
f 262/2/6 221/2/6 268/2/6
f 267/2/6 262/2/6 268/2/6
f 220/2/6 263/2/6 269/2/6
f 263/4/6 264/4/6 269/4/6
f 264/2/6 265/2/6 270/2/6
f 269/4/6 264/4/6 270/4/6
f 265/4/6 266/4/6 271/4/6
f 270/2/6 265/2/6 271/2/6
f 266/2/6 267/2/6 272/2/6
f 271/4/6 266/4/6 272/4/6
f 267/4/6 268/4/6 273/4/6
f 272/2/6 267/2/6 273/2/6
f 268/2/6 221/2/6 274/2/6
f 273/4/6 268/4/6 274/4/6
f 270/2/6 271/2/6 275/2/6
f 272/2/6 273/2/6 275/2/6
f 273/2/6 274/2/6 275/2/6
f 269/2/6 270/2/6 275/2/6
f 220/2/6 269/2/6 275/2/6
f 271/2/6 272/2/6 275/2/6
f 274/2/6 221/2/6 276/2/6
f 275/2/6 274/2/6 276/2/6
f 277/2/6 278/2/6 279/2/6
f 279/2/6 278/2/6 280/2/6
f 280/2/6 278/2/6 281/2/6
f 281/2/6 278/2/6 282/2/6
f 277/2/6 279/2/6 283/2/6
f 279/7/6 280/7/6 283/7/6
f 280/2/6 281/2/6 284/2/6
f 283/7/6 280/7/6 284/7/6
f 281/7/6 282/7/6 285/7/6
f 284/2/6 281/2/6 285/2/6
f 282/2/6 278/2/6 286/2/6
f 285/7/6 282/7/6 286/7/6
f 284/2/6 285/2/6 287/2/6
f 283/2/6 284/2/6 287/2/6
f 285/2/6 286/2/6 287/2/6
f 277/2/6 283/2/6 287/2/6
f 287/2/6 286/2/6 288/2/6
f 288/2/6 286/2/6 289/2/6
f 289/2/6 286/2/6 290/2/6
f 290/2/6 286/2/6 291/2/6
f 286/2/6 278/2/6 292/2/6
f 291/2/6 286/2/6 292/2/6
f 277/2/6 287/2/6 293/2/6
f 287/7/6 288/7/6 293/7/6
f 288/2/6 289/2/6 294/2/6
f 293/7/6 288/7/6 294/7/6
f 289/7/6 290/7/6 295/7/6
f 294/2/6 289/2/6 295/2/6
f 290/2/6 291/2/6 296/2/6
f 295/7/6 290/7/6 296/7/6
f 291/7/6 292/7/6 297/7/6
f 296/2/6 291/2/6 297/2/6
f 292/2/6 278/2/6 298/2/6
f 297/7/6 292/7/6 298/7/6
f 294/2/6 295/2/6 299/2/6
f 296/2/6 297/2/6 299/2/6
f 297/2/6 298/2/6 299/2/6
f 293/2/6 294/2/6 299/2/6
f 277/2/6 293/2/6 299/2/6
f 295/2/6 296/2/6 299/2/6
f 298/2/6 278/2/6 300/2/6
f 299/2/6 298/2/6 300/2/6
f 301/6/6 302/6/6 303/6/6
f 303/6/6 302/6/6 304/6/6
f 301/6/6 303/6/6 305/6/6
f 301/6/6 305/6/6 307/6/6
f 305/6/6 306/6/6 307/6/6
f 307/6/6 306/6/6 308/6/6
f 309/1/6 310/1/6 311/1/6
f 311/1/6 310/1/6 312/1/6
f 313/3/6 314/3/6 315/3/6
f 315/3/6 314/3/6 316/3/6
f 316/3/6 314/3/6 317/3/6
f 317/3/6 314/3/6 318/3/6
f 318/3/6 314/3/6 319/3/6
f 319/3/6 314/3/6 320/3/6
f 315/4/6 316/4/6 321/4/6
f 316/3/6 317/3/6 322/3/6
f 321/4/6 316/4/6 322/4/6
f 317/2/6 318/2/6 323/2/6
f 322/3/6 317/3/6 323/3/6
f 323/2/6 318/2/6 324/2/6
f 324/2/6 318/2/6 325/2/6
f 318/3/6 319/3/6 326/3/6
f 325/2/6 318/2/6 326/2/6
f 319/4/6 320/4/6 327/4/6
f 326/3/6 319/3/6 327/3/6
f 327/4/6 320/4/6 328/4/6
f 321/3/6 322/3/6 329/3/6
f 322/3/6 323/3/6 329/3/6
f 323/3/6 324/3/6 329/3/6
f 329/3/6 324/3/6 330/3/6
f 324/2/6 325/2/6 331/2/6
f 330/3/6 324/3/6 331/3/6
f 325/3/6 326/3/6 332/3/6
f 331/2/6 325/2/6 332/2/6
f 327/3/6 328/3/6 332/3/6
f 326/3/6 327/3/6 332/3/6
f 332/3/6 328/3/6 333/3/6
f 333/3/6 328/3/6 334/3/6
f 328/4/6 320/4/6 335/4/6
f 334/3/6 328/3/6 335/3/6
f 320/3/6 314/3/6 336/3/6
f 335/4/6 320/4/6 336/4/6
f 329/2/6 330/2/6 337/2/6
f 321/3/6 329/3/6 337/3/6
f 330/3/6 331/3/6 338/3/6
f 337/2/6 330/2/6 338/2/6
f 331/4/6 332/4/6 339/4/6
f 338/3/6 331/3/6 339/3/6
f 332/3/6 333/3/6 340/3/6
f 339/4/6 332/4/6 340/4/6
f 333/2/6 334/2/6 341/2/6
f 340/3/6 333/3/6 341/3/6
f 334/3/6 335/3/6 342/3/6
f 341/2/6 334/2/6 342/2/6
f 335/3/6 336/3/6 342/3/6
f 340/3/6 341/3/6 343/3/6
f 339/3/6 340/3/6 343/3/6
f 341/3/6 342/3/6 343/3/6
f 337/3/6 338/3/6 343/3/6
f 338/3/6 339/3/6 343/3/6
f 321/3/6 337/3/6 343/3/6
f 343/3/6 342/3/6 344/3/6
f 344/3/6 342/3/6 345/3/6
f 345/3/6 342/3/6 346/3/6
f 346/3/6 342/3/6 347/3/6
f 342/3/6 336/3/6 348/3/6
f 347/3/6 342/3/6 348/3/6
f 321/3/6 343/3/6 349/3/6
f 343/4/6 344/4/6 349/4/6
f 344/3/6 345/3/6 350/3/6
f 349/4/6 344/4/6 350/4/6
f 346/3/6 347/3/6 351/3/6
f 347/4/6 348/4/6 351/4/6
f 348/3/6 336/3/6 352/3/6
f 351/4/6 348/4/6 352/4/6
f 349/2/6 350/2/6 353/2/6
f 321/3/6 349/3/6 353/3/6
f 350/3/6 345/3/6 354/3/6
f 353/2/6 350/2/6 354/2/6
f 345/4/6 346/4/6 355/4/6
f 354/3/6 345/3/6 355/3/6
f 346/3/6 351/3/6 356/3/6
f 355/4/6 346/4/6 356/4/6
f 351/2/6 352/2/6 357/2/6
f 356/3/6 351/3/6 357/3/6
f 352/3/6 336/3/6 358/3/6
f 357/2/6 352/2/6 358/2/6
f 321/3/6 353/3/6 359/3/6
f 354/3/6 355/3/6 359/3/6
f 357/3/6 358/3/6 359/3/6
f 353/3/6 354/3/6 359/3/6
f 355/3/6 356/3/6 359/3/6
f 356/3/6 357/3/6 359/3/6
f 359/3/6 358/3/6 360/3/6
f 360/3/6 358/3/6 361/3/6
f 358/3/6 336/3/6 362/3/6
f 361/3/6 358/3/6 362/3/6
f 321/3/6 359/3/6 363/3/6
f 359/2/6 360/2/6 363/2/6
f 360/4/6 361/4/6 364/4/6
f 363/2/6 360/2/6 364/2/6
f 364/4/6 361/4/6 365/4/6
f 365/4/6 361/4/6 366/4/6
f 361/2/6 362/2/6 367/2/6
f 366/4/6 361/4/6 367/4/6
f 362/3/6 336/3/6 368/3/6
f 367/2/6 362/2/6 368/2/6
f 368/3/6 336/3/6 369/3/6
f 336/3/6 314/3/6 370/3/6
f 369/3/6 336/3/6 370/3/6
f 321/3/6 363/3/6 371/3/6
f 315/4/6 321/4/6 371/4/6
f 363/3/6 364/3/6 371/3/6
f 364/3/6 365/3/6 371/3/6
f 371/3/6 365/3/6 372/3/6
f 372/3/6 365/3/6 373/3/6
f 365/2/6 366/2/6 374/2/6
f 373/3/6 365/3/6 374/3/6
f 368/3/6 369/3/6 375/3/6
f 374/2/6 366/2/6 375/2/6
f 366/3/6 367/3/6 375/3/6
f 367/3/6 368/3/6 375/3/6
f 375/3/6 369/3/6 376/3/6
f 376/3/6 369/3/6 377/3/6
f 369/4/6 370/4/6 378/4/6
f 377/3/6 369/3/6 378/3/6
f 313/3/6 315/3/6 379/3/6
f 371/4/6 372/4/6 379/4/6
f 315/4/6 371/4/6 379/4/6
f 372/3/6 373/3/6 380/3/6
f 379/4/6 372/4/6 380/4/6
f 373/2/6 374/2/6 381/2/6
f 380/3/6 373/3/6 381/3/6
f 375/2/6 376/2/6 381/2/6
f 374/2/6 375/2/6 381/2/6
f 376/3/6 377/3/6 382/3/6
f 381/2/6 376/2/6 382/2/6
f 377/4/6 378/4/6 383/4/6
f 382/3/6 377/3/6 383/3/6
f 378/4/6 370/4/6 384/4/6
f 383/4/6 378/4/6 384/4/6
f 370/3/6 314/3/6 384/3/6
f 382/3/6 383/3/6 385/3/6
f 313/3/6 379/3/6 385/3/6
f 383/3/6 384/3/6 385/3/6
f 381/3/6 382/3/6 385/3/6
f 379/3/6 380/3/6 385/3/6
f 380/3/6 381/3/6 385/3/6
f 384/3/6 314/3/6 386/3/6
f 385/3/6 384/3/6 386/3/6
