# MagicaVoxel @ Ephtracy

# group
o 

# material
mtllib Nha-17.mtl
usemtl palette

# normals
vn -1 0 0
vn 1 0 0
vn 0 0 1
vn 0 0 -1
vn 0 -1 0
vn 0 1 0

# texcoords
vt 0.845703 0.5
vt 0.849609 0.5
vt 0.853516 0.5
vt 0.857422 0.5
vt 0.861328 0.5
vt 0.865234 0.5
vt 0.869141 0.5

# verts
v -5.3 4.1 -8
v -5.3 4.1 -8.3
v -5.3 4.1 -8.7
v -5.3 4.1 -8.9
v -5.3 4.1 -9.3
v -5.3 4.1 -9.7
v -5.3 4.1 -9.9
v -5.3 4.1 -10.1
v -5.3 4.1 -10.3
v -5.3 4.1 -10.8
v -5.3 4.1 -11.2
v -5.3 4.1 -11.5
v -5.3 4.1 -11.8
v -5.3 4.1 -12
v -5.3 4.6 -8
v -5.3 4.6 -8.3
v -5.3 4.6 -8.7
v -5.3 4.6 -8.9
v -5.3 4.6 -9.3
v -5.3 4.6 -9.7
v -5.3 4.6 -9.9
v -5.3 4.6 -10.1
v -5.3 4.6 -10.3
v -5.3 4.6 -10.8
v -5.3 4.6 -11.2
v -5.3 4.6 -11.5
v -5.3 4.6 -11.8
v -5.3 4.6 -12
v -4.6 0.9 -8.7
v -4.6 0.9 -9.1
v -4.6 0.9 -9.3
v -4.6 0.9 -9.5
v -4.6 0.9 -9.8
v -4.6 0.9 -9.9
v -4.6 0.9 -10.1
v -4.6 0.9 -10.5
v -4.6 0.9 -10.9
v -4.6 0.9 -11.3
v -4.6 0.9 -11.4
v -4.6 1.6 -8.9
v -4.6 1.6 -9.1
v -4.6 2.1 -9.3
v -4.6 2.1 -9.5
v -4.6 2.1 -9.6
v -4.6 2.1 -9.8
v -4.6 2.6 -9.9
v -4.6 2.6 -10
v -4.6 2.6 -10.1
v -4.6 2.7 -10.7
v -4.6 2.7 -10.9
v -4.6 2.8 -8.9
v -4.6 2.8 -9.1
v -4.6 3 -8.9
v -4.6 3 -9.1
v -4.6 3 -9.3
v -4.6 3 -9.6
v -4.6 3.5 -9.1
v -4.6 3.5 -9.3
v -4.6 4.1 -8.7
v -4.6 4.1 -8.9
v -4.6 4.1 -9.1
v -4.6 4.1 -9.3
v -4.6 4.1 -9.6
v -4.6 4.1 -9.7
v -4.6 4.1 -9.8
v -4.6 4.1 -9.9
v -4.6 4.1 -10
v -4.6 4.1 -10.1
v -4.6 4.1 -10.3
v -4.6 4.1 -10.5
v -4.6 4.1 -10.7
v -4.6 4.1 -10.8
v -4.6 4.1 -10.9
v -4.6 4.1 -11.2
v -4.6 4.1 -11.3
v -4.6 4.1 -11.4
v 1.5 0.9 -8.7
v 1.5 0.9 -9.1
v 1.5 0.9 -9.3
v 1.5 0.9 -9.5
v 1.5 0.9 -9.8
v 1.5 0.9 -9.9
v 1.5 0.9 -10.1
v 1.5 0.9 -10.5
v 1.5 0.9 -10.9
v 1.5 0.9 -11.3
v 1.5 0.9 -11.4
v 1.5 1.6 -8.9
v 1.5 1.6 -9.1
v 1.5 2.1 -9.3
v 1.5 2.1 -9.5
v 1.5 2.1 -9.6
v 1.5 2.1 -9.8
v 1.5 2.6 -9.9
v 1.5 2.6 -10
v 1.5 2.6 -10.1
v 1.5 2.7 -10.7
v 1.5 2.7 -10.9
v 1.5 2.8 -8.9
v 1.5 2.8 -9.1
v 1.5 3 -8.9
v 1.5 3 -9.1
v 1.5 3 -9.3
v 1.5 3 -9.6
v 1.5 3.5 -9.1
v 1.5 3.5 -9.3
v 1.5 4.1 -8.7
v 1.5 4.1 -8.9
v 1.5 4.1 -9.1
v 1.5 4.1 -9.3
v 1.5 4.1 -9.6
v 1.5 4.1 -9.7
v 1.5 4.1 -9.8
v 1.5 4.1 -9.9
v 1.5 4.1 -10
v 1.5 4.1 -10.1
v 1.5 4.1 -10.3
v 1.5 4.1 -10.5
v 1.5 4.1 -10.7
v 1.5 4.1 -10.8
v 1.5 4.1 -10.9
v 1.5 4.1 -11.2
v 1.5 4.1 -11.3
v 1.5 4.1 -11.4
v -4.2 0.9 -8.7
v -4.2 0.9 -9.1
v -4.2 0.9 -9.3
v -4.2 0.9 -9.5
v -4.2 0.9 -9.8
v -4.2 0.9 -9.9
v -4.2 0.9 -10.1
v -4.2 0.9 -10.5
v -4.2 0.9 -10.9
v -4.2 0.9 -11.3
v -4.2 0.9 -11.4
v -4.2 1.6 -8.9
v -4.2 1.6 -9.1
v -4.2 2.1 -9.3
v -4.2 2.1 -9.5
v -4.2 2.1 -9.6
v -4.2 2.1 -9.8
v -4.2 2.6 -9.9
v -4.2 2.6 -10
v -4.2 2.6 -10.1
v -4.2 2.7 -10.7
v -4.2 2.7 -10.9
v -4.2 2.8 -8.9
v -4.2 2.8 -9.1
v -4.2 3 -8.9
v -4.2 3 -9.1
v -4.2 3 -9.3
v -4.2 3 -9.6
v -4.2 3.5 -9.1
v -4.2 3.5 -9.3
v -4.2 4.1 -8.7
v -4.2 4.1 -8.9
v -4.2 4.1 -9.1
v -4.2 4.1 -9.3
v -4.2 4.1 -9.6
v -4.2 4.1 -9.7
v -4.2 4.1 -9.8
v -4.2 4.1 -9.9
v -4.2 4.1 -10
v -4.2 4.1 -10.1
v -4.2 4.1 -10.3
v -4.2 4.1 -10.5
v -4.2 4.1 -10.7
v -4.2 4.1 -10.8
v -4.2 4.1 -10.9
v -4.2 4.1 -11.2
v -4.2 4.1 -11.3
v -4.2 4.1 -11.4
v 1.9 0.9 -8.7
v 1.9 0.9 -9.1
v 1.9 0.9 -9.3
v 1.9 0.9 -9.5
v 1.9 0.9 -9.8
v 1.9 0.9 -9.9
v 1.9 0.9 -10.1
v 1.9 0.9 -10.5
v 1.9 0.9 -10.9
v 1.9 0.9 -11.3
v 1.9 0.9 -11.4
v 1.9 1.6 -8.9
v 1.9 1.6 -9.1
v 1.9 2.1 -9.3
v 1.9 2.1 -9.5
v 1.9 2.1 -9.6
v 1.9 2.1 -9.8
v 1.9 2.6 -9.9
v 1.9 2.6 -10
v 1.9 2.6 -10.1
v 1.9 2.7 -10.7
v 1.9 2.7 -10.9
v 1.9 2.8 -8.9
v 1.9 2.8 -9.1
v 1.9 3 -8.9
v 1.9 3 -9.1
v 1.9 3 -9.3
v 1.9 3 -9.6
v 1.9 3.5 -9.1
v 1.9 3.5 -9.3
v 1.9 4.1 -8.7
v 1.9 4.1 -8.9
v 1.9 4.1 -9.1
v 1.9 4.1 -9.3
v 1.9 4.1 -9.6
v 1.9 4.1 -9.7
v 1.9 4.1 -9.8
v 1.9 4.1 -9.9
v 1.9 4.1 -10
v 1.9 4.1 -10.1
v 1.9 4.1 -10.3
v 1.9 4.1 -10.5
v 1.9 4.1 -10.7
v 1.9 4.1 -10.8
v 1.9 4.1 -10.9
v 1.9 4.1 -11.2
v 1.9 4.1 -11.3
v 1.9 4.1 -11.4
v 2.8 4.1 -8
v 2.8 4.1 -8.3
v 2.8 4.1 -8.7
v 2.8 4.1 -8.9
v 2.8 4.1 -9.1
v 2.8 4.1 -9.3
v 2.8 4.1 -9.7
v 2.8 4.1 -9.9
v 2.8 4.1 -10.1
v 2.8 4.1 -10.3
v 2.8 4.1 -10.8
v 2.8 4.1 -11.2
v 2.8 4.1 -11.5
v 2.8 4.1 -11.8
v 2.8 4.1 -12
v 2.8 4.3 -8.9
v 2.8 4.3 -9.1
v 2.8 4.3 -9.3
v 2.8 4.6 -8
v 2.8 4.6 -8.3
v 2.8 4.6 -8.7
v 2.8 4.6 -8.9
v 2.8 4.6 -9.3
v 2.8 4.6 -9.7
v 2.8 4.6 -9.9
v 2.8 4.6 -10.1
v 2.8 4.6 -10.3
v 2.8 4.6 -10.8
v 2.8 4.6 -11.2
v 2.8 4.6 -11.5
v 2.8 4.6 -11.8
v 2.8 4.6 -12
v -5.3 4.1 -8
v -5.3 4.6 -8
v 2.8 4.1 -8
v 2.8 4.6 -8
v -4.6 0.9 -8.7
v -4.6 4.1 -8.7
v -4.5 0.9 -8.7
v -4.5 4.1 -8.7
v -4.3 0.9 -8.7
v -4.3 4.1 -8.7
v -4.2 0.9 -8.7
v -4.2 4.1 -8.7
v 1.5 0.9 -8.7
v 1.5 4.1 -8.7
v 1.6 0.9 -8.7
v 1.6 4.1 -8.7
v 1.8 0.9 -8.7
v 1.8 4.1 -8.7
v 1.9 0.9 -8.7
v 1.9 4.1 -8.7
v -4.6 0.9 -11.4
v -4.6 4.1 -11.4
v -4.2 0.9 -11.4
v -4.2 4.1 -11.4
v 1.5 0.9 -11.4
v 1.5 4.1 -11.4
v 1.9 0.9 -11.4
v 1.9 4.1 -11.4
v -5.3 4.1 -12
v -5.3 4.6 -12
v 2.8 4.1 -12
v 2.8 4.6 -12
v -4.6 0.9 -8.7
v -4.5 0.9 -8.7
v -4.3 0.9 -8.7
v -4.2 0.9 -8.7
v 1.5 0.9 -8.7
v 1.6 0.9 -8.7
v 1.8 0.9 -8.7
v 1.9 0.9 -8.7
v -4.5 0.9 -8.8
v -4.3 0.9 -8.8
v 1.6 0.9 -8.8
v 1.8 0.9 -8.8
v -4.6 0.9 -9.1
v -4.5 0.9 -9.1
v -4.3 0.9 -9.1
v -4.2 0.9 -9.1
v 1.5 0.9 -9.1
v 1.6 0.9 -9.1
v 1.8 0.9 -9.1
v 1.9 0.9 -9.1
v -4.6 0.9 -9.3
v -4.5 0.9 -9.3
v -4.3 0.9 -9.3
v -4.2 0.9 -9.3
v 1.5 0.9 -9.3
v 1.6 0.9 -9.3
v 1.8 0.9 -9.3
v 1.9 0.9 -9.3
v -4.6 0.9 -9.5
v -4.5 0.9 -9.5
v -4.3 0.9 -9.5
v -4.2 0.9 -9.5
v 1.5 0.9 -9.5
v 1.6 0.9 -9.5
v 1.8 0.9 -9.5
v 1.9 0.9 -9.5
v -4.6 0.9 -9.8
v -4.5 0.9 -9.8
v -4.3 0.9 -9.8
v -4.2 0.9 -9.8
v 1.5 0.9 -9.8
v 1.6 0.9 -9.8
v 1.8 0.9 -9.8
v 1.9 0.9 -9.8
v -4.6 0.9 -9.9
v -4.5 0.9 -9.9
v -4.3 0.9 -9.9
v -4.2 0.9 -9.9
v 1.5 0.9 -9.9
v 1.6 0.9 -9.9
v 1.8 0.9 -9.9
v 1.9 0.9 -9.9
v -4.6 0.9 -10.1
v -4.5 0.9 -10.1
v -4.3 0.9 -10.1
v -4.2 0.9 -10.1
v 1.5 0.9 -10.1
v 1.6 0.9 -10.1
v 1.8 0.9 -10.1
v 1.9 0.9 -10.1
v -4.6 0.9 -10.5
v -4.5 0.9 -10.5
v -4.3 0.9 -10.5
v -4.2 0.9 -10.5
v 1.5 0.9 -10.5
v 1.6 0.9 -10.5
v 1.8 0.9 -10.5
v 1.9 0.9 -10.5
v -4.6 0.9 -10.9
v -4.5 0.9 -10.9
v -4.3 0.9 -10.9
v -4.2 0.9 -10.9
v 1.5 0.9 -10.9
v 1.6 0.9 -10.9
v 1.8 0.9 -10.9
v 1.9 0.9 -10.9
v -4.6 0.9 -11.3
v -4.5 0.9 -11.3
v -4.3 0.9 -11.3
v -4.2 0.9 -11.3
v 1.5 0.9 -11.3
v 1.6 0.9 -11.3
v 1.8 0.9 -11.3
v 1.9 0.9 -11.3
v -4.6 0.9 -11.4
v -4.2 0.9 -11.4
v 1.5 0.9 -11.4
v 1.9 0.9 -11.4
v -5.3 4.1 -8
v 2.8 4.1 -8
v -5.3 4.1 -8.3
v 2.8 4.1 -8.3
v -5.3 4.1 -8.7
v -4.6 4.1 -8.7
v -4.5 4.1 -8.7
v -4.3 4.1 -8.7
v -4.2 4.1 -8.7
v 1.5 4.1 -8.7
v 1.6 4.1 -8.7
v 1.8 4.1 -8.7
v 1.9 4.1 -8.7
v 2.8 4.1 -8.7
v -5.3 4.1 -8.9
v -4.6 4.1 -8.9
v -4.2 4.1 -8.9
v -2.3 4.1 -8.9
v 1.5 4.1 -8.9
v 1.9 4.1 -8.9
v 2.8 4.1 -8.9
v -4.6 4.1 -9.1
v -4.2 4.1 -9.1
v -2.3 4.1 -9.1
v 1.5 4.1 -9.1
v 1.9 4.1 -9.1
v 2.8 4.1 -9.1
v -5.3 4.1 -9.3
v -4.6 4.1 -9.3
v -4.2 4.1 -9.3
v 1.5 4.1 -9.3
v 1.9 4.1 -9.3
v 2.8 4.1 -9.3
v -4.6 4.1 -9.6
v -4.2 4.1 -9.6
v 1.5 4.1 -9.6
v 1.9 4.1 -9.6
v -5.3 4.1 -9.7
v -4.6 4.1 -9.7
v -4.2 4.1 -9.7
v 1.5 4.1 -9.7
v 1.9 4.1 -9.7
v 2.8 4.1 -9.7
v -4.6 4.1 -9.8
v -4.2 4.1 -9.8
v 1.5 4.1 -9.8
v 1.9 4.1 -9.8
v -5.3 4.1 -9.9
v -4.6 4.1 -9.9
v -4.2 4.1 -9.9
v -3.8 4.1 -9.9
v 1.5 4.1 -9.9
v 1.9 4.1 -9.9
v 2.8 4.1 -9.9
v -4.6 4.1 -10
v -4.2 4.1 -10
v 1.5 4.1 -10
v 1.9 4.1 -10
v -5.3 4.1 -10.1
v -4.6 4.1 -10.1
v -4.2 4.1 -10.1
v -3.8 4.1 -10.1
v 1.5 4.1 -10.1
v 1.9 4.1 -10.1
v 2.8 4.1 -10.1
v -5.3 4.1 -10.3
v -4.6 4.1 -10.3
v -4.2 4.1 -10.3
v 1.5 4.1 -10.3
v 1.9 4.1 -10.3
v 2.8 4.1 -10.3
v -4.6 4.1 -10.5
v -4.2 4.1 -10.5
v 1.5 4.1 -10.5
v 1.9 4.1 -10.5
v -4.6 4.1 -10.7
v -4.2 4.1 -10.7
v 1.5 4.1 -10.7
v 1.9 4.1 -10.7
v -5.3 4.1 -10.8
v -4.6 4.1 -10.8
v -4.2 4.1 -10.8
v 1.5 4.1 -10.8
v 1.9 4.1 -10.8
v 2.8 4.1 -10.8
v -4.6 4.1 -10.9
v -4.2 4.1 -10.9
v 1.5 4.1 -10.9
v 1.9 4.1 -10.9
v -5.3 4.1 -11.2
v -4.6 4.1 -11.2
v -4.2 4.1 -11.2
v 1.5 4.1 -11.2
v 1.9 4.1 -11.2
v 2.8 4.1 -11.2
v -4.6 4.1 -11.3
v -4.2 4.1 -11.3
v 1.5 4.1 -11.3
v 1.9 4.1 -11.3
v -4.6 4.1 -11.4
v -4.2 4.1 -11.4
v 1.5 4.1 -11.4
v 1.9 4.1 -11.4
v -5.3 4.1 -11.5
v 2.8 4.1 -11.5
v -5.3 4.1 -11.8
v 2.8 4.1 -11.8
v -5.3 4.1 -12
v 2.8 4.1 -12
v -5.3 4.6 -8
v 2.8 4.6 -8
v -5.3 4.6 -8.3
v 2.8 4.6 -8.3
v -5.3 4.6 -8.7
v 2.8 4.6 -8.7
v -5.3 4.6 -8.9
v 2.8 4.6 -8.9
v -5.3 4.6 -9.3
v 2.8 4.6 -9.3
v -5.3 4.6 -9.7
v 2.8 4.6 -9.7
v -5.3 4.6 -9.9
v 2.8 4.6 -9.9
v -5.3 4.6 -10.1
v 2.8 4.6 -10.1
v -5.3 4.6 -10.3
v 2.8 4.6 -10.3
v -5.3 4.6 -10.8
v 2.8 4.6 -10.8
v -5.3 4.6 -11.2
v 2.8 4.6 -11.2
v -5.3 4.6 -11.5
v 2.8 4.6 -11.5
v -5.3 4.6 -11.8
v 2.8 4.6 -11.8
v -5.3 4.6 -12
v 2.8 4.6 -12

# faces
f 15/2/1 2/2/1 1/2/1
f 16/3/1 3/3/1 2/3/1
f 16/2/1 2/2/1 15/2/1
f 17/7/1 4/7/1 3/7/1
f 17/3/1 3/3/1 16/3/1
f 18/5/1 5/5/1 4/5/1
f 18/7/1 4/7/1 17/7/1
f 19/4/1 6/4/1 5/4/1
f 19/5/1 5/5/1 18/5/1
f 20/1/1 7/1/1 6/1/1
f 20/4/1 6/4/1 19/4/1
f 21/2/1 8/2/1 7/2/1
f 21/1/1 7/1/1 20/1/1
f 22/1/1 9/1/1 8/1/1
f 22/2/1 8/2/1 21/2/1
f 23/2/1 10/2/1 9/2/1
f 23/1/1 9/1/1 22/1/1
f 24/6/1 11/6/1 10/6/1
f 24/2/1 10/2/1 23/2/1
f 25/1/1 12/1/1 11/1/1
f 25/6/1 11/6/1 24/6/1
f 26/5/1 13/5/1 12/5/1
f 26/1/1 12/1/1 25/1/1
f 27/1/1 14/1/1 13/1/1
f 27/5/1 13/5/1 26/5/1
f 28/1/1 14/1/1 27/1/1
f 40/7/1 30/7/1 29/7/1
f 41/3/1 31/3/1 30/3/1
f 41/7/1 30/7/1 40/7/1
f 42/1/1 32/1/1 31/1/1
f 42/3/1 31/3/1 41/3/1
f 43/2/1 33/2/1 32/2/1
f 43/1/1 32/1/1 42/1/1
f 44/2/1 33/2/1 43/2/1
f 45/3/1 34/3/1 33/3/1
f 45/2/1 33/2/1 44/2/1
f 46/6/1 35/6/1 34/6/1
f 46/3/1 34/3/1 45/3/1
f 47/6/1 35/6/1 46/6/1
f 48/3/1 36/3/1 35/3/1
f 48/6/1 35/6/1 47/6/1
f 49/1/1 37/1/1 36/1/1
f 50/4/1 38/4/1 37/4/1
f 50/1/1 37/1/1 49/1/1
f 51/7/1 40/7/1 29/7/1
f 51/5/1 41/5/1 40/5/1
f 52/3/1 42/3/1 41/3/1
f 52/5/1 41/5/1 51/5/1
f 53/7/1 51/7/1 29/7/1
f 53/7/1 52/7/1 51/7/1
f 54/3/1 42/3/1 52/3/1
f 54/7/1 52/7/1 53/7/1
f 55/4/1 44/4/1 43/4/1
f 55/3/1 42/3/1 54/3/1
f 55/4/1 43/4/1 42/4/1
f 56/1/1 45/1/1 44/1/1
f 56/4/1 44/4/1 55/4/1
f 57/2/1 54/2/1 53/2/1
f 57/3/1 55/3/1 54/3/1
f 58/5/1 56/5/1 55/5/1
f 58/3/1 55/3/1 57/3/1
f 59/7/1 53/7/1 29/7/1
f 60/2/1 57/2/1 53/2/1
f 60/7/1 53/7/1 59/7/1
f 61/7/1 58/7/1 57/7/1
f 61/2/1 57/2/1 60/2/1
f 62/5/1 56/5/1 58/5/1
f 62/7/1 58/7/1 61/7/1
f 63/1/1 45/1/1 56/1/1
f 63/5/1 56/5/1 62/5/1
f 64/1/1 45/1/1 63/1/1
f 65/3/1 46/3/1 45/3/1
f 65/1/1 45/1/1 64/1/1
f 66/4/1 47/4/1 46/4/1
f 66/3/1 46/3/1 65/3/1
f 67/1/1 48/1/1 47/1/1
f 67/4/1 47/4/1 66/4/1
f 68/3/1 36/3/1 48/3/1
f 68/1/1 48/1/1 67/1/1
f 69/3/1 36/3/1 68/3/1
f 70/1/1 49/1/1 36/1/1
f 70/3/1 36/3/1 69/3/1
f 71/6/1 50/6/1 49/6/1
f 71/1/1 49/1/1 70/1/1
f 72/6/1 50/6/1 71/6/1
f 73/4/1 38/4/1 50/4/1
f 73/6/1 50/6/1 72/6/1
f 74/4/1 38/4/1 73/4/1
f 75/1/1 39/1/1 38/1/1
f 75/4/1 38/4/1 74/4/1
f 76/1/1 39/1/1 75/1/1
f 88/7/1 78/7/1 77/7/1
f 89/3/1 79/3/1 78/3/1
f 89/7/1 78/7/1 88/7/1
f 90/1/1 80/1/1 79/1/1
f 90/3/1 79/3/1 89/3/1
f 91/2/1 81/2/1 80/2/1
f 91/1/1 80/1/1 90/1/1
f 92/2/1 81/2/1 91/2/1
f 93/3/1 82/3/1 81/3/1
f 93/2/1 81/2/1 92/2/1
f 94/6/1 83/6/1 82/6/1
f 94/3/1 82/3/1 93/3/1
f 95/6/1 83/6/1 94/6/1
f 96/3/1 84/3/1 83/3/1
f 96/6/1 83/6/1 95/6/1
f 97/1/1 85/1/1 84/1/1
f 98/4/1 86/4/1 85/4/1
f 98/1/1 85/1/1 97/1/1
f 99/7/1 88/7/1 77/7/1
f 99/5/1 89/5/1 88/5/1
f 100/3/1 90/3/1 89/3/1
f 100/5/1 89/5/1 99/5/1
f 101/7/1 99/7/1 77/7/1
f 101/7/1 100/7/1 99/7/1
f 102/3/1 90/3/1 100/3/1
f 102/7/1 100/7/1 101/7/1
f 103/4/1 92/4/1 91/4/1
f 103/3/1 90/3/1 102/3/1
f 103/4/1 91/4/1 90/4/1
f 104/1/1 93/1/1 92/1/1
f 104/4/1 92/4/1 103/4/1
f 105/2/1 102/2/1 101/2/1
f 105/3/1 103/3/1 102/3/1
f 106/5/1 104/5/1 103/5/1
f 106/3/1 103/3/1 105/3/1
f 107/7/1 101/7/1 77/7/1
f 108/2/1 105/2/1 101/2/1
f 108/7/1 101/7/1 107/7/1
f 109/7/1 106/7/1 105/7/1
f 109/2/1 105/2/1 108/2/1
f 110/5/1 104/5/1 106/5/1
f 110/7/1 106/7/1 109/7/1
f 111/1/1 93/1/1 104/1/1
f 111/5/1 104/5/1 110/5/1
f 112/1/1 93/1/1 111/1/1
f 113/3/1 94/3/1 93/3/1
f 113/1/1 93/1/1 112/1/1
f 114/4/1 95/4/1 94/4/1
f 114/3/1 94/3/1 113/3/1
f 115/1/1 96/1/1 95/1/1
f 115/4/1 95/4/1 114/4/1
f 116/3/1 84/3/1 96/3/1
f 116/1/1 96/1/1 115/1/1
f 117/3/1 84/3/1 116/3/1
f 118/1/1 97/1/1 84/1/1
f 118/3/1 84/3/1 117/3/1
f 119/6/1 98/6/1 97/6/1
f 119/1/1 97/1/1 118/1/1
f 120/6/1 98/6/1 119/6/1
f 121/4/1 86/4/1 98/4/1
f 121/6/1 98/6/1 120/6/1
f 122/4/1 86/4/1 121/4/1
f 123/1/1 87/1/1 86/1/1
f 123/4/1 86/4/1 122/4/1
f 124/1/1 87/1/1 123/1/1
f 125/7/2 126/7/2 136/7/2
f 126/3/2 127/3/2 137/3/2
f 136/7/2 126/7/2 137/7/2
f 127/1/2 128/1/2 138/1/2
f 137/3/2 127/3/2 138/3/2
f 128/2/2 129/2/2 139/2/2
f 138/1/2 128/1/2 139/1/2
f 139/2/2 129/2/2 140/2/2
f 129/3/2 130/3/2 141/3/2
f 140/2/2 129/2/2 141/2/2
f 130/6/2 131/6/2 142/6/2
f 141/3/2 130/3/2 142/3/2
f 142/6/2 131/6/2 143/6/2
f 131/3/2 132/3/2 144/3/2
f 143/6/2 131/6/2 144/6/2
f 132/1/2 133/1/2 145/1/2
f 133/4/2 134/4/2 146/4/2
f 145/1/2 133/1/2 146/1/2
f 125/7/2 136/7/2 147/7/2
f 136/5/2 137/5/2 147/5/2
f 137/3/2 138/3/2 148/3/2
f 147/5/2 137/5/2 148/5/2
f 125/7/2 147/7/2 149/7/2
f 147/7/2 148/7/2 149/7/2
f 148/3/2 138/3/2 150/3/2
f 149/7/2 148/7/2 150/7/2
f 139/4/2 140/4/2 151/4/2
f 150/3/2 138/3/2 151/3/2
f 138/4/2 139/4/2 151/4/2
f 140/1/2 141/1/2 152/1/2
f 151/4/2 140/4/2 152/4/2
f 149/2/2 150/2/2 153/2/2
f 150/3/2 151/3/2 153/3/2
f 151/5/2 152/5/2 154/5/2
f 153/3/2 151/3/2 154/3/2
f 125/7/2 149/7/2 155/7/2
f 149/2/2 153/2/2 156/2/2
f 155/7/2 149/7/2 156/7/2
f 153/7/2 154/7/2 157/7/2
f 156/2/2 153/2/2 157/2/2
f 154/5/2 152/5/2 158/5/2
f 157/7/2 154/7/2 158/7/2
f 152/1/2 141/1/2 159/1/2
f 158/5/2 152/5/2 159/5/2
f 159/1/2 141/1/2 160/1/2
f 141/3/2 142/3/2 161/3/2
f 160/1/2 141/1/2 161/1/2
f 142/4/2 143/4/2 162/4/2
f 161/3/2 142/3/2 162/3/2
f 143/1/2 144/1/2 163/1/2
f 162/4/2 143/4/2 163/4/2
f 144/3/2 132/3/2 164/3/2
f 163/1/2 144/1/2 164/1/2
f 164/3/2 132/3/2 165/3/2
f 132/1/2 145/1/2 166/1/2
f 165/3/2 132/3/2 166/3/2
f 145/6/2 146/6/2 167/6/2
f 166/1/2 145/1/2 167/1/2
f 167/6/2 146/6/2 168/6/2
f 146/4/2 134/4/2 169/4/2
f 168/6/2 146/6/2 169/6/2
f 169/4/2 134/4/2 170/4/2
f 134/1/2 135/1/2 171/1/2
f 170/4/2 134/4/2 171/4/2
f 171/1/2 135/1/2 172/1/2
f 173/7/2 174/7/2 184/7/2
f 174/3/2 175/3/2 185/3/2
f 184/7/2 174/7/2 185/7/2
f 175/1/2 176/1/2 186/1/2
f 185/3/2 175/3/2 186/3/2
f 176/2/2 177/2/2 187/2/2
f 186/1/2 176/1/2 187/1/2
f 187/2/2 177/2/2 188/2/2
f 177/3/2 178/3/2 189/3/2
f 188/2/2 177/2/2 189/2/2
f 178/6/2 179/6/2 190/6/2
f 189/3/2 178/3/2 190/3/2
f 190/6/2 179/6/2 191/6/2
f 179/3/2 180/3/2 192/3/2
f 191/6/2 179/6/2 192/6/2
f 180/1/2 181/1/2 193/1/2
f 181/4/2 182/4/2 194/4/2
f 193/1/2 181/1/2 194/1/2
f 173/7/2 184/7/2 195/7/2
f 184/5/2 185/5/2 195/5/2
f 185/3/2 186/3/2 196/3/2
f 195/5/2 185/5/2 196/5/2
f 173/7/2 195/7/2 197/7/2
f 195/7/2 196/7/2 197/7/2
f 196/3/2 186/3/2 198/3/2
f 197/7/2 196/7/2 198/7/2
f 187/4/2 188/4/2 199/4/2
f 198/3/2 186/3/2 199/3/2
f 186/4/2 187/4/2 199/4/2
f 188/1/2 189/1/2 200/1/2
f 199/4/2 188/4/2 200/4/2
f 197/2/2 198/2/2 201/2/2
f 198/3/2 199/3/2 201/3/2
f 199/5/2 200/5/2 202/5/2
f 201/3/2 199/3/2 202/3/2
f 173/7/2 197/7/2 203/7/2
f 197/2/2 201/2/2 204/2/2
f 203/7/2 197/7/2 204/7/2
f 201/7/2 202/7/2 205/7/2
f 204/2/2 201/2/2 205/2/2
f 202/5/2 200/5/2 206/5/2
f 205/7/2 202/7/2 206/7/2
f 200/1/2 189/1/2 207/1/2
f 206/5/2 200/5/2 207/5/2
f 207/1/2 189/1/2 208/1/2
f 189/3/2 190/3/2 209/3/2
f 208/1/2 189/1/2 209/1/2
f 190/4/2 191/4/2 210/4/2
f 209/3/2 190/3/2 210/3/2
f 191/1/2 192/1/2 211/1/2
f 210/4/2 191/4/2 211/4/2
f 192/3/2 180/3/2 212/3/2
f 211/1/2 192/1/2 212/1/2
f 212/3/2 180/3/2 213/3/2
f 180/1/2 193/1/2 214/1/2
f 213/3/2 180/3/2 214/3/2
f 193/6/2 194/6/2 215/6/2
f 214/1/2 193/1/2 215/1/2
f 215/6/2 194/6/2 216/6/2
f 194/4/2 182/4/2 217/4/2
f 216/6/2 194/6/2 217/6/2
f 217/4/2 182/4/2 218/4/2
f 182/1/2 183/1/2 219/1/2
f 218/4/2 182/4/2 219/4/2
f 219/1/2 183/1/2 220/1/2
f 223/7/2 224/7/2 236/7/2
f 224/1/2 225/1/2 236/1/2
f 225/2/2 226/2/2 237/2/2
f 236/1/2 225/1/2 237/1/2
f 226/4/2 227/4/2 238/4/2
f 237/2/2 226/2/2 238/2/2
f 221/2/2 222/2/2 239/2/2
f 222/3/2 223/3/2 240/3/2
f 239/2/2 222/2/2 240/2/2
f 223/7/2 236/7/2 241/7/2
f 240/3/2 223/3/2 241/3/2
f 236/5/2 237/5/2 242/5/2
f 241/7/2 236/7/2 242/7/2
f 237/5/2 238/5/2 242/5/2
f 238/4/2 227/4/2 243/4/2
f 242/5/2 238/5/2 243/5/2
f 227/1/2 228/1/2 244/1/2
f 243/4/2 227/4/2 244/4/2
f 228/2/2 229/2/2 245/2/2
f 244/1/2 228/1/2 245/1/2
f 229/1/2 230/1/2 246/1/2
f 245/2/2 229/2/2 246/2/2
f 230/2/2 231/2/2 247/2/2
f 246/1/2 230/1/2 247/1/2
f 231/6/2 232/6/2 248/6/2
f 247/2/2 231/2/2 248/2/2
f 232/1/2 233/1/2 249/1/2
f 248/6/2 232/6/2 249/6/2
f 233/5/2 234/5/2 250/5/2
f 249/1/2 233/1/2 250/1/2
f 234/1/2 235/1/2 251/1/2
f 250/5/2 234/5/2 251/5/2
f 251/1/2 235/1/2 252/1/2
f 255/2/3 254/2/3 253/2/3
f 256/2/3 254/2/3 255/2/3
f 259/7/3 258/7/3 257/7/3
f 260/7/3 258/7/3 259/7/3
f 261/6/3 260/6/3 259/6/3
f 262/6/3 260/6/3 261/6/3
f 263/7/3 262/7/3 261/7/3
f 264/7/3 262/7/3 263/7/3
f 267/7/3 266/7/3 265/7/3
f 268/7/3 266/7/3 267/7/3
f 269/6/3 268/6/3 267/6/3
f 270/6/3 268/6/3 269/6/3
f 271/7/3 270/7/3 269/7/3
f 272/7/3 270/7/3 271/7/3
f 273/1/4 274/1/4 275/1/4
f 275/1/4 274/1/4 276/1/4
f 277/1/4 278/1/4 279/1/4
f 279/1/4 278/1/4 280/1/4
f 281/1/4 282/1/4 283/1/4
f 283/1/4 282/1/4 284/1/4
f 293/7/5 286/7/5 285/7/5
f 293/6/5 287/6/5 286/6/5
f 294/7/5 288/7/5 287/7/5
f 294/6/5 287/6/5 293/6/5
f 295/6/5 291/6/5 290/6/5
f 295/7/5 290/7/5 289/7/5
f 296/7/5 292/7/5 291/7/5
f 296/6/5 291/6/5 295/6/5
f 297/7/5 293/7/5 285/7/5
f 298/1/5 294/1/5 293/1/5
f 298/7/5 293/7/5 297/7/5
f 299/7/5 288/7/5 294/7/5
f 299/1/5 294/1/5 298/1/5
f 300/7/5 288/7/5 299/7/5
f 301/7/5 295/7/5 289/7/5
f 302/1/5 296/1/5 295/1/5
f 302/7/5 295/7/5 301/7/5
f 303/7/5 292/7/5 296/7/5
f 303/1/5 296/1/5 302/1/5
f 304/7/5 292/7/5 303/7/5
f 305/3/5 298/3/5 297/3/5
f 306/1/5 299/1/5 298/1/5
f 306/3/5 298/3/5 305/3/5
f 307/3/5 300/3/5 299/3/5
f 307/1/5 299/1/5 306/1/5
f 308/3/5 300/3/5 307/3/5
f 309/3/5 302/3/5 301/3/5
f 310/1/5 303/1/5 302/1/5
f 310/3/5 302/3/5 309/3/5
f 311/3/5 304/3/5 303/3/5
f 311/1/5 303/1/5 310/1/5
f 312/3/5 304/3/5 311/3/5
f 313/1/5 306/1/5 305/1/5
f 313/1/5 308/1/5 307/1/5
f 313/1/5 307/1/5 306/1/5
f 314/1/5 308/1/5 313/1/5
f 315/1/5 308/1/5 314/1/5
f 316/1/5 308/1/5 315/1/5
f 317/1/5 312/1/5 311/1/5
f 317/1/5 310/1/5 309/1/5
f 317/1/5 311/1/5 310/1/5
f 318/1/5 312/1/5 317/1/5
f 319/1/5 312/1/5 318/1/5
f 320/1/5 312/1/5 319/1/5
f 321/2/5 314/2/5 313/2/5
f 322/1/5 315/1/5 314/1/5
f 322/2/5 314/2/5 321/2/5
f 323/2/5 316/2/5 315/2/5
f 323/1/5 315/1/5 322/1/5
f 324/2/5 316/2/5 323/2/5
f 325/2/5 318/2/5 317/2/5
f 326/1/5 319/1/5 318/1/5
f 326/2/5 318/2/5 325/2/5
f 327/2/5 320/2/5 319/2/5
f 327/1/5 319/1/5 326/1/5
f 328/2/5 320/2/5 327/2/5
f 329/3/5 322/3/5 321/3/5
f 330/1/5 323/1/5 322/1/5
f 330/3/5 322/3/5 329/3/5
f 331/3/5 324/3/5 323/3/5
f 331/1/5 323/1/5 330/1/5
f 332/3/5 324/3/5 331/3/5
f 333/3/5 326/3/5 325/3/5
f 334/1/5 327/1/5 326/1/5
f 334/3/5 326/3/5 333/3/5
f 335/3/5 328/3/5 327/3/5
f 335/1/5 327/1/5 334/1/5
f 336/3/5 328/3/5 335/3/5
f 337/6/5 330/6/5 329/6/5
f 338/1/5 331/1/5 330/1/5
f 338/6/5 330/6/5 337/6/5
f 339/6/5 332/6/5 331/6/5
f 339/1/5 331/1/5 338/1/5
f 340/6/5 332/6/5 339/6/5
f 341/6/5 334/6/5 333/6/5
f 342/1/5 335/1/5 334/1/5
f 342/6/5 334/6/5 341/6/5
f 343/6/5 336/6/5 335/6/5
f 343/1/5 335/1/5 342/1/5
f 344/6/5 336/6/5 343/6/5
f 345/3/5 338/3/5 337/3/5
f 346/1/5 339/1/5 338/1/5
f 346/3/5 338/3/5 345/3/5
f 347/3/5 340/3/5 339/3/5
f 347/1/5 339/1/5 346/1/5
f 348/3/5 340/3/5 347/3/5
f 349/3/5 342/3/5 341/3/5
f 350/1/5 343/1/5 342/1/5
f 350/3/5 342/3/5 349/3/5
f 351/3/5 344/3/5 343/3/5
f 351/1/5 343/1/5 350/1/5
f 352/3/5 344/3/5 351/3/5
f 353/1/5 346/1/5 345/1/5
f 353/1/5 348/1/5 347/1/5
f 353/1/5 347/1/5 346/1/5
f 354/1/5 348/1/5 353/1/5
f 355/1/5 348/1/5 354/1/5
f 356/1/5 348/1/5 355/1/5
f 357/1/5 352/1/5 351/1/5
f 357/1/5 350/1/5 349/1/5
f 357/1/5 351/1/5 350/1/5
f 358/1/5 352/1/5 357/1/5
f 359/1/5 352/1/5 358/1/5
f 360/1/5 352/1/5 359/1/5
f 361/4/5 354/4/5 353/4/5
f 362/1/5 355/1/5 354/1/5
f 362/4/5 354/4/5 361/4/5
f 363/4/5 356/4/5 355/4/5
f 363/1/5 355/1/5 362/1/5
f 364/4/5 356/4/5 363/4/5
f 365/4/5 358/4/5 357/4/5
f 366/1/5 359/1/5 358/1/5
f 366/4/5 358/4/5 365/4/5
f 367/4/5 360/4/5 359/4/5
f 367/1/5 359/1/5 366/1/5
f 368/4/5 360/4/5 367/4/5
f 369/1/5 362/1/5 361/1/5
f 369/1/5 364/1/5 363/1/5
f 369/1/5 363/1/5 362/1/5
f 370/1/5 364/1/5 369/1/5
f 371/1/5 368/1/5 367/1/5
f 371/1/5 366/1/5 365/1/5
f 371/1/5 367/1/5 366/1/5
f 372/1/5 368/1/5 371/1/5
f 375/2/5 374/2/5 373/2/5
f 376/2/5 374/2/5 375/2/5
f 377/3/5 376/3/5 375/3/5
f 378/3/5 376/3/5 377/3/5
f 379/3/5 376/3/5 378/3/5
f 380/3/5 376/3/5 379/3/5
f 381/3/5 376/3/5 380/3/5
f 382/3/5 376/3/5 381/3/5
f 383/3/5 376/3/5 382/3/5
f 384/3/5 376/3/5 383/3/5
f 385/3/5 376/3/5 384/3/5
f 386/3/5 376/3/5 385/3/5
f 387/7/5 378/7/5 377/7/5
f 388/7/5 378/7/5 387/7/5
f 389/7/5 382/7/5 381/7/5
f 390/7/5 382/7/5 389/7/5
f 391/7/5 382/7/5 390/7/5
f 392/7/5 386/7/5 385/7/5
f 393/7/5 386/7/5 392/7/5
f 394/5/5 388/5/5 387/5/5
f 395/6/5 390/6/5 389/6/5
f 396/1/5 391/1/5 390/1/5
f 396/6/5 390/6/5 395/6/5
f 397/1/5 391/1/5 396/1/5
f 398/1/5 393/1/5 392/1/5
f 399/1/5 393/1/5 398/1/5
f 400/5/5 394/5/5 387/5/5
f 401/5/5 394/5/5 400/5/5
f 402/2/5 397/2/5 396/2/5
f 402/2/5 396/2/5 395/2/5
f 403/2/5 397/2/5 402/2/5
f 404/2/5 399/2/5 398/2/5
f 405/2/5 399/2/5 404/2/5
f 406/4/5 401/4/5 400/4/5
f 407/4/5 403/4/5 402/4/5
f 408/4/5 403/4/5 407/4/5
f 409/4/5 405/4/5 404/4/5
f 410/4/5 406/4/5 400/4/5
f 411/4/5 406/4/5 410/4/5
f 412/4/5 408/4/5 407/4/5
f 413/4/5 408/4/5 412/4/5
f 414/4/5 405/4/5 409/4/5
f 415/4/5 405/4/5 414/4/5
f 416/1/5 411/1/5 410/1/5
f 417/1/5 413/1/5 412/1/5
f 418/1/5 413/1/5 417/1/5
f 419/1/5 415/1/5 414/1/5
f 420/1/5 416/1/5 410/1/5
f 421/1/5 416/1/5 420/1/5
f 422/1/5 418/1/5 417/1/5
f 423/1/5 418/1/5 422/1/5
f 424/1/5 418/1/5 423/1/5
f 425/1/5 415/1/5 419/1/5
f 426/1/5 415/1/5 425/1/5
f 427/2/5 421/2/5 420/2/5
f 428/1/5 423/1/5 422/1/5
f 429/2/5 424/2/5 423/2/5
f 430/2/5 426/2/5 425/2/5
f 431/2/5 427/2/5 420/2/5
f 432/2/5 427/2/5 431/2/5
f 433/1/5 423/1/5 428/1/5
f 434/2/5 429/2/5 423/2/5
f 434/1/5 423/1/5 433/1/5
f 435/2/5 429/2/5 434/2/5
f 436/2/5 426/2/5 430/2/5
f 437/2/5 426/2/5 436/2/5
f 438/1/5 432/1/5 431/1/5
f 439/1/5 432/1/5 438/1/5
f 440/1/5 435/1/5 434/1/5
f 440/1/5 434/1/5 433/1/5
f 441/1/5 435/1/5 440/1/5
f 442/1/5 437/1/5 436/1/5
f 443/1/5 437/1/5 442/1/5
f 444/2/5 439/2/5 438/2/5
f 445/2/5 441/2/5 440/2/5
f 446/2/5 441/2/5 445/2/5
f 447/2/5 443/2/5 442/2/5
f 448/2/5 444/2/5 438/2/5
f 449/2/5 446/2/5 445/2/5
f 450/2/5 446/2/5 449/2/5
f 451/2/5 443/2/5 447/2/5
f 452/2/5 448/2/5 438/2/5
f 453/2/5 448/2/5 452/2/5
f 454/2/5 450/2/5 449/2/5
f 455/2/5 450/2/5 454/2/5
f 456/2/5 443/2/5 451/2/5
f 457/2/5 443/2/5 456/2/5
f 458/6/5 453/6/5 452/6/5
f 459/6/5 455/6/5 454/6/5
f 460/6/5 455/6/5 459/6/5
f 461/6/5 457/6/5 456/6/5
f 462/6/5 458/6/5 452/6/5
f 463/6/5 458/6/5 462/6/5
f 464/6/5 460/6/5 459/6/5
f 465/6/5 460/6/5 464/6/5
f 466/6/5 457/6/5 461/6/5
f 467/6/5 457/6/5 466/6/5
f 468/1/5 463/1/5 462/1/5
f 469/1/5 465/1/5 464/1/5
f 470/1/5 465/1/5 469/1/5
f 471/1/5 467/1/5 466/1/5
f 472/1/5 468/1/5 462/1/5
f 473/1/5 470/1/5 469/1/5
f 474/1/5 470/1/5 473/1/5
f 475/1/5 467/1/5 471/1/5
f 476/1/5 474/1/5 473/1/5
f 476/1/5 475/1/5 474/1/5
f 476/1/5 472/1/5 462/1/5
f 476/1/5 473/1/5 472/1/5
f 477/1/5 467/1/5 475/1/5
f 477/1/5 475/1/5 476/1/5
f 478/5/5 477/5/5 476/5/5
f 479/5/5 477/5/5 478/5/5
f 480/1/5 479/1/5 478/1/5
f 481/1/5 479/1/5 480/1/5
f 482/2/6 483/2/6 484/2/6
f 484/2/6 483/2/6 485/2/6
f 484/3/6 485/3/6 486/3/6
f 486/3/6 485/3/6 487/3/6
f 486/7/6 487/7/6 488/7/6
f 488/7/6 487/7/6 489/7/6
f 488/5/6 489/5/6 490/5/6
f 490/5/6 489/5/6 491/5/6
f 490/4/6 491/4/6 492/4/6
f 492/4/6 491/4/6 493/4/6
f 492/1/6 493/1/6 494/1/6
f 494/1/6 493/1/6 495/1/6
f 494/2/6 495/2/6 496/2/6
f 496/2/6 495/2/6 497/2/6
f 496/1/6 497/1/6 498/1/6
f 498/1/6 497/1/6 499/1/6
f 498/2/6 499/2/6 500/2/6
f 500/2/6 499/2/6 501/2/6
f 500/6/6 501/6/6 502/6/6
f 502/6/6 501/6/6 503/6/6
f 502/1/6 503/1/6 504/1/6
f 504/1/6 503/1/6 505/1/6
f 504/5/6 505/5/6 506/5/6
f 506/5/6 505/5/6 507/5/6
f 506/1/6 507/1/6 508/1/6
f 508/1/6 507/1/6 509/1/6
