# MagicaVoxel @ Ephtracy

# group
o 

# material
mtllib Nha-5.mtl
usemtl palette

# normals
vn -1 0 0
vn 1 0 0
vn 0 0 1
vn 0 0 -1
vn 0 -1 0
vn 0 1 0

# texcoords
vt 0.564453 0.5
vt 0.568359 0.5
vt 0.572266 0.5
vt 0.576172 0.5
vt 0.580078 0.5
vt 0.583984 0.5

# verts
v 1.1 4.6 -10.1
v 1.1 4.6 -11.5
v 1.1 4.7 -10.3
v 1.1 4.7 -10.4
v 1.1 4.7 -10.6
v 1.1 4.7 -10.7
v 1.1 4.7 -10.9
v 1.1 4.7 -11
v 1.1 4.7 -11.2
v 1.1 4.7 -11.3
v 1.1 4.8 -10.2
v 1.1 4.8 -10.3
v 1.1 4.8 -10.4
v 1.1 4.8 -10.5
v 1.1 4.8 -10.6
v 1.1 4.8 -10.7
v 1.1 4.8 -10.8
v 1.1 4.8 -10.9
v 1.1 4.8 -11
v 1.1 4.8 -11.1
v 1.1 4.8 -11.2
v 1.1 4.8 -11.3
v 1.1 4.8 -11.4
v 1.1 4.9 -10.2
v 1.1 4.9 -10.3
v 1.1 4.9 -10.5
v 1.1 4.9 -10.6
v 1.1 4.9 -10.8
v 1.1 4.9 -10.9
v 1.1 4.9 -11.1
v 1.1 4.9 -11.2
v 1.1 4.9 -11.3
v 1.1 4.9 -11.4
v 1.1 5 -10.1
v 1.1 5 -11.5
v 1.2 5.3 -10.1
v 1.2 5.3 -11.3
v 1.2 5.4 -10.3
v 1.2 5.4 -10.4
v 1.2 5.4 -10.5
v 1.2 5.4 -10.6
v 1.2 5.4 -10.7
v 1.2 5.4 -10.8
v 1.2 5.4 -10.9
v 1.2 5.4 -11
v 1.2 5.4 -11.1
v 1.2 5.4 -11.2
v 1.2 5.5 -10.3
v 1.2 5.5 -10.4
v 1.2 5.5 -10.5
v 1.2 5.5 -10.6
v 1.2 5.5 -10.7
v 1.2 5.5 -10.8
v 1.2 5.5 -10.9
v 1.2 5.5 -11
v 1.2 5.5 -11.1
v 1.2 5.5 -11.2
v 1.2 5.6 -10.1
v 1.2 5.6 -11.3
v 1.3 5 -10.2
v 1.3 5 -11.4
v 1.3 5.3 -10.2
v 1.3 5.3 -11.3
v 1.3 5.3 -11.4
v 2.3 4.6 -10.1
v 2.3 4.6 -11.5
v 2.3 4.7 -10.1
v 2.3 4.7 -11.5
v 2.3 4.8 -10.1
v 2.3 4.8 -11.5
v 2.3 4.9 -10.1
v 2.3 4.9 -11.5
v 2.3 5 -10.1
v 2.3 5 -10.2
v 2.3 5 -11.4
v 2.3 5 -11.5
v 2.3 5.1 -10.2
v 2.3 5.1 -11.4
v 2.3 5.2 -10.2
v 2.3 5.2 -11.4
v 2.3 5.3 -10.1
v 2.3 5.3 -10.2
v 2.3 5.3 -11.3
v 2.3 5.3 -11.4
v 2.3 5.4 -10.1
v 2.3 5.4 -11.3
v 2.3 5.5 -10.1
v 2.3 5.5 -11.3
v 2.3 5.6 -10.1
v 2.3 5.6 -11.3
v 1.1 4.6 -10.1
v 1.1 5 -10.1
v 1.2 4.7 -10.1
v 1.2 4.8 -10.1
v 1.2 4.9 -10.1
v 1.2 5.3 -10.1
v 1.2 5.6 -10.1
v 1.3 5.4 -10.1
v 1.3 5.5 -10.1
v 2.3 4.6 -10.1
v 2.3 4.7 -10.1
v 2.3 4.8 -10.1
v 2.3 4.9 -10.1
v 2.3 5 -10.1
v 2.3 5.3 -10.1
v 2.3 5.4 -10.1
v 2.3 5.5 -10.1
v 2.3 5.6 -10.1
v 1.3 5 -10.2
v 1.3 5.3 -10.2
v 1.4 5.1 -10.2
v 1.4 5.2 -10.2
v 2.3 5 -10.2
v 2.3 5.1 -10.2
v 2.3 5.2 -10.2
v 2.3 5.3 -10.2
v 1.2 5.3 -11.3
v 1.2 5.6 -11.3
v 1.3 5.3 -11.3
v 1.3 5.4 -11.3
v 1.3 5.5 -11.3
v 2.3 5.3 -11.3
v 2.3 5.4 -11.3
v 2.3 5.5 -11.3
v 2.3 5.6 -11.3
v 1.3 5 -11.4
v 1.3 5.3 -11.4
v 1.4 5.1 -11.4
v 1.4 5.2 -11.4
v 2.3 5 -11.4
v 2.3 5.1 -11.4
v 2.3 5.2 -11.4
v 2.3 5.3 -11.4
v 1.1 4.6 -11.5
v 1.1 5 -11.5
v 1.2 4.7 -11.5
v 1.2 4.8 -11.5
v 1.2 4.9 -11.5
v 2.3 4.6 -11.5
v 2.3 4.7 -11.5
v 2.3 4.8 -11.5
v 2.3 4.9 -11.5
v 2.3 5 -11.5
v 1.1 4.6 -10.1
v 2.3 4.6 -10.1
v 1.2 4.6 -10.2
v 2.2 4.6 -10.2
v 1.2 4.6 -11.4
v 2.2 4.6 -11.4
v 1.1 4.6 -11.5
v 2.3 4.6 -11.5
v 1.2 5.3 -10.1
v 2.3 5.3 -10.1
v 1.3 5.3 -10.2
v 2.3 5.3 -10.2
v 1.2 5.3 -11.3
v 1.3 5.3 -11.3
v 1.1 5 -10.1
v 2.3 5 -10.1
v 1.3 5 -10.2
v 2.3 5 -10.2
v 1.3 5 -11.4
v 2.3 5 -11.4
v 1.1 5 -11.5
v 2.3 5 -11.5
v 1.3 5.3 -11.3
v 2.3 5.3 -11.3
v 1.3 5.3 -11.4
v 2.3 5.3 -11.4
v 1.2 5.6 -10.1
v 2.3 5.6 -10.1
v 1.3 5.6 -10.2
v 1.5 5.6 -10.2
v 1.6 5.6 -10.2
v 1.9 5.6 -10.2
v 2 5.6 -10.2
v 2.2 5.6 -10.2
v 1.4 5.6 -10.3
v 1.5 5.6 -10.3
v 1.6 5.6 -10.3
v 1.7 5.6 -10.3
v 1.8 5.6 -10.3
v 1.9 5.6 -10.3
v 2 5.6 -10.3
v 2.1 5.6 -10.3
v 1.5 5.6 -10.4
v 1.6 5.6 -10.4
v 1.7 5.6 -10.4
v 1.8 5.6 -10.4
v 1.9 5.6 -10.4
v 2 5.6 -10.4
v 2.1 5.6 -10.4
v 2.2 5.6 -10.4
v 1.5 5.6 -10.5
v 1.6 5.6 -10.5
v 1.7 5.6 -10.5
v 1.8 5.6 -10.5
v 1.9 5.6 -10.5
v 2 5.6 -10.5
v 1.5 5.6 -10.6
v 1.6 5.6 -10.6
v 1.7 5.6 -10.6
v 1.8 5.6 -10.6
v 1.9 5.6 -10.6
v 2 5.6 -10.6
v 1.5 5.6 -10.7
v 1.6 5.6 -10.7
v 1.9 5.6 -10.7
v 2 5.6 -10.7
v 1.5 5.6 -10.8
v 1.6 5.6 -10.8
v 1.7 5.6 -10.8
v 1.8 5.6 -10.8
v 1.9 5.6 -10.8
v 2 5.6 -10.8
v 1.5 5.6 -10.9
v 1.6 5.6 -10.9
v 1.9 5.6 -10.9
v 2 5.6 -10.9
v 1.5 5.6 -11
v 1.6 5.6 -11
v 1.7 5.6 -11
v 1.8 5.6 -11
v 1.9 5.6 -11
v 2 5.6 -11
v 2.1 5.6 -11
v 2.2 5.6 -11
v 1.4 5.6 -11.1
v 1.5 5.6 -11.1
v 1.6 5.6 -11.1
v 1.7 5.6 -11.1
v 1.8 5.6 -11.1
v 1.9 5.6 -11.1
v 2 5.6 -11.1
v 2.1 5.6 -11.1
v 1.3 5.6 -11.2
v 1.5 5.6 -11.2
v 1.6 5.6 -11.2
v 1.9 5.6 -11.2
v 2 5.6 -11.2
v 2.2 5.6 -11.2
v 1.2 5.6 -11.3
v 2.3 5.6 -11.3

# faces
f 3/6/1 2/6/1 1/6/1
f 4/6/1 2/6/1 3/6/1
f 5/6/1 2/6/1 4/6/1
f 6/6/1 2/6/1 5/6/1
f 7/6/1 2/6/1 6/6/1
f 8/6/1 2/6/1 7/6/1
f 9/6/1 2/6/1 8/6/1
f 10/6/1 2/6/1 9/6/1
f 11/6/1 3/6/1 1/6/1
f 12/2/1 4/2/1 3/2/1
f 12/6/1 3/6/1 11/6/1
f 13/6/1 5/6/1 4/6/1
f 13/2/1 4/2/1 12/2/1
f 14/6/1 5/6/1 13/6/1
f 15/2/1 6/2/1 5/2/1
f 15/6/1 5/6/1 14/6/1
f 16/6/1 7/6/1 6/6/1
f 16/2/1 6/2/1 15/2/1
f 17/6/1 7/6/1 16/6/1
f 18/2/1 8/2/1 7/2/1
f 18/6/1 7/6/1 17/6/1
f 19/6/1 9/6/1 8/6/1
f 19/2/1 8/2/1 18/2/1
f 20/6/1 9/6/1 19/6/1
f 21/2/1 10/2/1 9/2/1
f 21/6/1 9/6/1 20/6/1
f 22/6/1 2/6/1 10/6/1
f 22/2/1 10/2/1 21/2/1
f 23/6/1 2/6/1 22/6/1
f 24/6/1 11/6/1 1/6/1
f 24/2/1 12/2/1 11/2/1
f 25/6/1 14/6/1 13/6/1
f 25/2/1 12/2/1 24/2/1
f 25/6/1 13/6/1 12/6/1
f 26/2/1 15/2/1 14/2/1
f 26/6/1 14/6/1 25/6/1
f 27/6/1 17/6/1 16/6/1
f 27/2/1 15/2/1 26/2/1
f 27/6/1 16/6/1 15/6/1
f 28/2/1 18/2/1 17/2/1
f 28/6/1 17/6/1 27/6/1
f 29/6/1 20/6/1 19/6/1
f 29/2/1 18/2/1 28/2/1
f 29/6/1 19/6/1 18/6/1
f 30/2/1 21/2/1 20/2/1
f 30/6/1 20/6/1 29/6/1
f 31/6/1 22/6/1 21/6/1
f 31/2/1 21/2/1 30/2/1
f 32/2/1 23/2/1 22/2/1
f 32/6/1 22/6/1 31/6/1
f 33/6/1 2/6/1 23/6/1
f 33/2/1 23/2/1 32/2/1
f 34/6/1 29/6/1 28/6/1
f 34/6/1 32/6/1 31/6/1
f 34/6/1 33/6/1 32/6/1
f 34/6/1 30/6/1 29/6/1
f 34/6/1 28/6/1 27/6/1
f 34/6/1 27/6/1 26/6/1
f 34/6/1 26/6/1 25/6/1
f 34/6/1 25/6/1 24/6/1
f 34/6/1 24/6/1 1/6/1
f 34/6/1 31/6/1 30/6/1
f 35/6/1 2/6/1 33/6/1
f 35/6/1 33/6/1 34/6/1
f 38/3/1 37/3/1 36/3/1
f 39/3/1 37/3/1 38/3/1
f 40/3/1 37/3/1 39/3/1
f 41/3/1 37/3/1 40/3/1
f 42/3/1 37/3/1 41/3/1
f 43/3/1 37/3/1 42/3/1
f 44/3/1 37/3/1 43/3/1
f 45/3/1 37/3/1 44/3/1
f 46/3/1 37/3/1 45/3/1
f 47/3/1 37/3/1 46/3/1
f 48/3/1 38/3/1 36/3/1
f 48/5/1 39/5/1 38/5/1
f 49/3/1 40/3/1 39/3/1
f 49/5/1 39/5/1 48/5/1
f 50/5/1 41/5/1 40/5/1
f 50/3/1 40/3/1 49/3/1
f 51/3/1 42/3/1 41/3/1
f 51/5/1 41/5/1 50/5/1
f 52/5/1 43/5/1 42/5/1
f 52/3/1 42/3/1 51/3/1
f 53/3/1 44/3/1 43/3/1
f 53/5/1 43/5/1 52/5/1
f 54/5/1 45/5/1 44/5/1
f 54/3/1 44/3/1 53/3/1
f 55/3/1 46/3/1 45/3/1
f 55/5/1 45/5/1 54/5/1
f 56/5/1 47/5/1 46/5/1
f 56/3/1 46/3/1 55/3/1
f 57/3/1 37/3/1 47/3/1
f 57/5/1 47/5/1 56/5/1
f 58/3/1 56/3/1 55/3/1
f 58/3/1 55/3/1 54/3/1
f 58/3/1 57/3/1 56/3/1
f 58/3/1 54/3/1 53/3/1
f 58/3/1 53/3/1 52/3/1
f 58/3/1 52/3/1 51/3/1
f 58/3/1 51/3/1 50/3/1
f 58/3/1 50/3/1 49/3/1
f 58/3/1 49/3/1 48/3/1
f 58/3/1 48/3/1 36/3/1
f 59/3/1 37/3/1 57/3/1
f 59/3/1 57/3/1 58/3/1
f 62/1/1 61/1/1 60/1/1
f 63/1/1 61/1/1 62/1/1
f 64/1/1 61/1/1 63/1/1
f 65/6/2 66/6/2 67/6/2
f 67/6/2 66/6/2 68/6/2
f 67/5/2 68/5/2 69/5/2
f 69/5/2 68/5/2 70/5/2
f 69/2/2 70/2/2 71/2/2
f 71/2/2 70/2/2 72/2/2
f 71/6/2 72/6/2 73/6/2
f 73/6/2 72/6/2 74/6/2
f 74/6/2 72/6/2 75/6/2
f 75/6/2 72/6/2 76/6/2
f 74/1/2 75/1/2 77/1/2
f 77/1/2 75/1/2 78/1/2
f 77/5/2 78/5/2 79/5/2
f 79/5/2 78/5/2 80/5/2
f 79/1/2 80/1/2 82/1/2
f 82/1/2 80/1/2 83/1/2
f 83/1/2 80/1/2 84/1/2
f 81/3/2 82/3/2 85/3/2
f 82/3/2 83/3/2 85/3/2
f 85/3/2 83/3/2 86/3/2
f 85/2/2 86/2/2 87/2/2
f 87/2/2 86/2/2 88/2/2
f 87/3/2 88/3/2 89/3/2
f 89/3/2 88/3/2 90/3/2
f 93/6/3 92/6/3 91/6/3
f 94/6/3 92/6/3 93/6/3
f 95/6/3 92/6/3 94/6/3
f 98/3/3 97/3/3 96/3/3
f 99/3/3 97/3/3 98/3/3
f 100/6/3 93/6/3 91/6/3
f 101/5/3 94/5/3 93/5/3
f 101/6/3 93/6/3 100/6/3
f 102/2/3 95/2/3 94/2/3
f 102/5/3 94/5/3 101/5/3
f 103/6/3 92/6/3 95/6/3
f 103/2/3 95/2/3 102/2/3
f 104/6/3 92/6/3 103/6/3
f 105/3/3 98/3/3 96/3/3
f 106/2/3 99/2/3 98/2/3
f 106/3/3 98/3/3 105/3/3
f 107/3/3 97/3/3 99/3/3
f 107/2/3 99/2/3 106/2/3
f 108/3/3 97/3/3 107/3/3
f 111/1/3 110/1/3 109/1/3
f 112/1/3 110/1/3 111/1/3
f 113/1/3 111/1/3 109/1/3
f 114/5/3 112/5/3 111/5/3
f 114/1/3 111/1/3 113/1/3
f 115/1/3 110/1/3 112/1/3
f 115/5/3 112/5/3 114/5/3
f 116/1/3 110/1/3 115/1/3
f 117/3/4 118/3/4 119/3/4
f 119/3/4 118/3/4 120/3/4
f 120/3/4 118/3/4 121/3/4
f 119/3/4 120/3/4 122/3/4
f 120/2/4 121/2/4 123/2/4
f 122/3/4 120/3/4 123/3/4
f 121/3/4 118/3/4 124/3/4
f 123/2/4 121/2/4 124/2/4
f 124/3/4 118/3/4 125/3/4
f 126/1/4 127/1/4 128/1/4
f 128/1/4 127/1/4 129/1/4
f 126/1/4 128/1/4 130/1/4
f 128/5/4 129/5/4 131/5/4
f 130/1/4 128/1/4 131/1/4
f 129/1/4 127/1/4 132/1/4
f 131/5/4 129/5/4 132/5/4
f 132/1/4 127/1/4 133/1/4
f 134/6/4 135/6/4 136/6/4
f 136/6/4 135/6/4 137/6/4
f 137/6/4 135/6/4 138/6/4
f 134/6/4 136/6/4 139/6/4
f 136/5/4 137/5/4 140/5/4
f 139/6/4 136/6/4 140/6/4
f 137/2/4 138/2/4 141/2/4
f 140/5/4 137/5/4 141/5/4
f 138/6/4 135/6/4 142/6/4
f 141/2/4 138/2/4 142/2/4
f 142/6/4 135/6/4 143/6/4
f 146/6/5 145/6/5 144/6/5
f 147/6/5 145/6/5 146/6/5
f 148/6/5 146/6/5 144/6/5
f 148/1/5 147/1/5 146/1/5
f 149/6/5 145/6/5 147/6/5
f 149/1/5 147/1/5 148/1/5
f 150/6/5 148/6/5 144/6/5
f 150/6/5 149/6/5 148/6/5
f 151/6/5 145/6/5 149/6/5
f 151/6/5 149/6/5 150/6/5
f 154/3/5 153/3/5 152/3/5
f 155/3/5 153/3/5 154/3/5
f 156/3/5 154/3/5 152/3/5
f 157/3/5 154/3/5 156/3/5
f 158/6/6 159/6/6 160/6/6
f 160/6/6 159/6/6 161/6/6
f 158/6/6 160/6/6 162/6/6
f 158/6/6 162/6/6 164/6/6
f 162/6/6 163/6/6 164/6/6
f 164/6/6 163/6/6 165/6/6
f 166/1/6 167/1/6 168/1/6
f 168/1/6 167/1/6 169/1/6
f 170/3/6 171/3/6 172/3/6
f 172/3/6 171/3/6 173/3/6
f 173/3/6 171/3/6 174/3/6
f 174/3/6 171/3/6 175/3/6
f 175/3/6 171/3/6 176/3/6
f 176/3/6 171/3/6 177/3/6
f 172/4/6 173/4/6 178/4/6
f 173/3/6 174/3/6 179/3/6
f 178/4/6 173/4/6 179/4/6
f 174/2/6 175/2/6 180/2/6
f 179/3/6 174/3/6 180/3/6
f 180/2/6 175/2/6 181/2/6
f 181/2/6 175/2/6 182/2/6
f 175/3/6 176/3/6 183/3/6
f 182/2/6 175/2/6 183/2/6
f 176/4/6 177/4/6 184/4/6
f 183/3/6 176/3/6 184/3/6
f 184/4/6 177/4/6 185/4/6
f 178/3/6 179/3/6 186/3/6
f 179/3/6 180/3/6 186/3/6
f 180/3/6 181/3/6 186/3/6
f 186/3/6 181/3/6 187/3/6
f 181/2/6 182/2/6 188/2/6
f 187/3/6 181/3/6 188/3/6
f 182/3/6 183/3/6 189/3/6
f 188/2/6 182/2/6 189/2/6
f 184/3/6 185/3/6 189/3/6
f 183/3/6 184/3/6 189/3/6
f 189/3/6 185/3/6 190/3/6
f 190/3/6 185/3/6 191/3/6
f 185/4/6 177/4/6 192/4/6
f 191/3/6 185/3/6 192/3/6
f 177/3/6 171/3/6 193/3/6
f 192/4/6 177/4/6 193/4/6
f 186/2/6 187/2/6 194/2/6
f 178/3/6 186/3/6 194/3/6
f 187/3/6 188/3/6 195/3/6
f 194/2/6 187/2/6 195/2/6
f 188/4/6 189/4/6 196/4/6
f 195/3/6 188/3/6 196/3/6
f 189/3/6 190/3/6 197/3/6
f 196/4/6 189/4/6 197/4/6
f 190/2/6 191/2/6 198/2/6
f 197/3/6 190/3/6 198/3/6
f 191/3/6 192/3/6 199/3/6
f 198/2/6 191/2/6 199/2/6
f 192/3/6 193/3/6 199/3/6
f 197/3/6 198/3/6 200/3/6
f 196/3/6 197/3/6 200/3/6
f 198/3/6 199/3/6 200/3/6
f 194/3/6 195/3/6 200/3/6
f 195/3/6 196/3/6 200/3/6
f 178/3/6 194/3/6 200/3/6
f 200/3/6 199/3/6 201/3/6
f 201/3/6 199/3/6 202/3/6
f 202/3/6 199/3/6 203/3/6
f 203/3/6 199/3/6 204/3/6
f 199/3/6 193/3/6 205/3/6
f 204/3/6 199/3/6 205/3/6
f 178/3/6 200/3/6 206/3/6
f 200/4/6 201/4/6 206/4/6
f 201/3/6 202/3/6 207/3/6
f 206/4/6 201/4/6 207/4/6
f 203/3/6 204/3/6 208/3/6
f 204/4/6 205/4/6 208/4/6
f 205/3/6 193/3/6 209/3/6
f 208/4/6 205/4/6 209/4/6
f 206/2/6 207/2/6 210/2/6
f 178/3/6 206/3/6 210/3/6
f 207/3/6 202/3/6 211/3/6
f 210/2/6 207/2/6 211/2/6
f 202/4/6 203/4/6 212/4/6
f 211/3/6 202/3/6 212/3/6
f 203/3/6 208/3/6 213/3/6
f 212/4/6 203/4/6 213/4/6
f 208/2/6 209/2/6 214/2/6
f 213/3/6 208/3/6 214/3/6
f 209/3/6 193/3/6 215/3/6
f 214/2/6 209/2/6 215/2/6
f 178/3/6 210/3/6 216/3/6
f 211/3/6 212/3/6 216/3/6
f 214/3/6 215/3/6 216/3/6
f 210/3/6 211/3/6 216/3/6
f 212/3/6 213/3/6 216/3/6
f 213/3/6 214/3/6 216/3/6
f 216/3/6 215/3/6 217/3/6
f 217/3/6 215/3/6 218/3/6
f 215/3/6 193/3/6 219/3/6
f 218/3/6 215/3/6 219/3/6
f 178/3/6 216/3/6 220/3/6
f 216/2/6 217/2/6 220/2/6
f 217/4/6 218/4/6 221/4/6
f 220/2/6 217/2/6 221/2/6
f 221/4/6 218/4/6 222/4/6
f 222/4/6 218/4/6 223/4/6
f 218/2/6 219/2/6 224/2/6
f 223/4/6 218/4/6 224/4/6
f 219/3/6 193/3/6 225/3/6
f 224/2/6 219/2/6 225/2/6
f 225/3/6 193/3/6 226/3/6
f 193/3/6 171/3/6 227/3/6
f 226/3/6 193/3/6 227/3/6
f 178/3/6 220/3/6 228/3/6
f 172/4/6 178/4/6 228/4/6
f 220/3/6 221/3/6 228/3/6
f 221/3/6 222/3/6 228/3/6
f 228/3/6 222/3/6 229/3/6
f 229/3/6 222/3/6 230/3/6
f 222/2/6 223/2/6 231/2/6
f 230/3/6 222/3/6 231/3/6
f 225/3/6 226/3/6 232/3/6
f 231/2/6 223/2/6 232/2/6
f 223/3/6 224/3/6 232/3/6
f 224/3/6 225/3/6 232/3/6
f 232/3/6 226/3/6 233/3/6
f 233/3/6 226/3/6 234/3/6
f 226/4/6 227/4/6 235/4/6
f 234/3/6 226/3/6 235/3/6
f 170/3/6 172/3/6 236/3/6
f 228/4/6 229/4/6 236/4/6
f 172/4/6 228/4/6 236/4/6
f 229/3/6 230/3/6 237/3/6
f 236/4/6 229/4/6 237/4/6
f 230/2/6 231/2/6 238/2/6
f 237/3/6 230/3/6 238/3/6
f 232/2/6 233/2/6 238/2/6
f 231/2/6 232/2/6 238/2/6
f 233/3/6 234/3/6 239/3/6
f 238/2/6 233/2/6 239/2/6
f 234/4/6 235/4/6 240/4/6
f 239/3/6 234/3/6 240/3/6
f 235/4/6 227/4/6 241/4/6
f 240/4/6 235/4/6 241/4/6
f 227/3/6 171/3/6 241/3/6
f 239/3/6 240/3/6 242/3/6
f 170/3/6 236/3/6 242/3/6
f 240/3/6 241/3/6 242/3/6
f 238/3/6 239/3/6 242/3/6
f 236/3/6 237/3/6 242/3/6
f 237/3/6 238/3/6 242/3/6
f 241/3/6 171/3/6 243/3/6
f 242/3/6 241/3/6 243/3/6
