# MagicaVoxel @ Ephtracy

# group
o 

# material
mtllib Nha-11.mtl
usemtl palette

# normals
vn -1 0 0
vn 1 0 0
vn 0 0 1
vn 0 0 -1
vn 0 -1 0
vn 0 1 0

# texcoords
vt 0.595703 0.5
vt 0.599609 0.5
vt 0.603516 0.5

# verts
v -4.6 5.9 -9.5
v -4.6 5.9 -9.7
v -4.6 5.9 -9.8
v -4.6 6 -9.5
v -4.6 6 -9.7
v -4.6 6.1 -9.7
v -4.6 6.1 -9.8
v -4.6 6.2 -9.5
v -4.6 6.2 -9.7
v -4.5 4.6 -9.6
v -4.5 4.6 -10.3
v -4.5 4.7 -9.6
v -4.5 4.7 -10.3
v -4.5 5.8 -9.4
v -4.5 5.8 -9.9
v -4.5 5.9 -9.5
v -4.5 5.9 -9.7
v -4.5 5.9 -9.8
v -4.5 5.9 -9.9
v -4.5 6 -9.4
v -4.5 6 -9.5
v -4.5 6.1 -9.7
v -4.5 6.1 -9.8
v -4.5 6.2 -9.5
v -4.5 6.2 -9.7
v -4.5 6.3 -9.4
v -4.5 6.3 -9.9
v -4.4 4.7 -9.9
v -4.4 4.7 -10
v -4.4 4.8 -9.9
v -4.4 4.8 -10
v -4.4 5.7 -9.5
v -4.4 5.7 -9.8
v -4.4 5.8 -9.5
v -4.4 5.8 -9.8
v -4.4 5.9 -9.3
v -4.4 5.9 -9.4
v -4.4 5.9 -9.9
v -4.4 5.9 -10
v -4.4 6 -9.3
v -4.4 6 -9.4
v -4.4 6.1 -9.9
v -4.4 6.1 -10
v -4.4 6.2 -9.3
v -4.4 6.2 -9.4
v -4.4 6.3 -9.5
v -4.4 6.3 -9.8
v -4.4 6.4 -9.5
v -4.4 6.4 -9.8
v -4.3 4.7 -9.8
v -4.3 4.7 -9.9
v -4.3 4.7 -10
v -4.3 4.7 -10.1
v -4.3 4.8 -9.8
v -4.3 4.8 -9.9
v -4.3 4.8 -10
v -4.3 4.8 -10.1
v -4.3 5 -9.9
v -4.3 5 -10
v -4.3 5 -10.1
v -4.3 5.2 -10
v -4.3 5.2 -10.1
v -4.3 5.2 -10.2
v -4.3 5.3 -10.1
v -4.3 5.3 -10.2
v -4.3 5.3 -10.3
v -4.3 6.3 -10.1
v -4.3 6.3 -10.2
v -4.3 6.3 -10.3
v -4.3 6.4 -9.7
v -4.3 6.4 -9.8
v -4.3 6.4 -10
v -4.3 6.4 -10.1
v -4.3 6.4 -10.2
v -4.3 6.5 -9.7
v -4.3 6.5 -9.8
v -4.3 6.5 -10
v -4.3 6.5 -10.1
v -4.3 6.6 -9.8
v -4.3 6.6 -10
v -4.2 4.7 -9.8
v -4.2 4.7 -9.9
v -4.2 4.7 -10
v -4.2 4.7 -10.1
v -4.2 4.8 -9.8
v -4.2 4.8 -9.9
v -4.2 4.8 -10
v -4.2 4.8 -10.1
v -4.2 5 -9.9
v -4.2 5 -10
v -4.2 5 -10.1
v -4.2 5.2 -10
v -4.2 5.2 -10.1
v -4.2 5.2 -10.2
v -4.2 5.3 -10.1
v -4.2 5.3 -10.2
v -4.2 5.3 -10.3
v -4.2 6.3 -10.1
v -4.2 6.3 -10.2
v -4.2 6.3 -10.3
v -4.2 6.4 -9.7
v -4.2 6.4 -9.8
v -4.2 6.4 -10
v -4.2 6.4 -10.1
v -4.2 6.4 -10.2
v -4.2 6.5 -9.7
v -4.2 6.5 -9.8
v -4.2 6.5 -10
v -4.2 6.5 -10.1
v -4.2 6.6 -9.8
v -4.2 6.6 -10
v -4.1 4.7 -9.9
v -4.1 4.7 -10
v -4.1 4.8 -9.9
v -4.1 4.8 -10
v -4.1 5.7 -9.5
v -4.1 5.7 -9.8
v -4.1 5.8 -9.5
v -4.1 5.8 -9.8
v -4.1 5.9 -9.3
v -4.1 5.9 -9.4
v -4.1 5.9 -9.9
v -4.1 5.9 -10
v -4.1 6 -9.3
v -4.1 6 -9.4
v -4.1 6.1 -9.9
v -4.1 6.1 -10
v -4.1 6.2 -9.3
v -4.1 6.2 -9.4
v -4.1 6.3 -9.5
v -4.1 6.3 -9.8
v -4.1 6.4 -9.5
v -4.1 6.4 -9.8
v -4 4.6 -9.6
v -4 4.6 -10.3
v -4 4.7 -9.6
v -4 4.7 -10.3
v -4 5.8 -9.4
v -4 5.8 -9.9
v -4 5.9 -9.5
v -4 5.9 -9.7
v -4 5.9 -9.8
v -4 5.9 -9.9
v -4 6 -9.4
v -4 6 -9.5
v -4 6.1 -9.7
v -4 6.1 -9.8
v -4 6.2 -9.5
v -4 6.2 -9.7
v -4 6.3 -9.4
v -4 6.3 -9.9
v -3.9 5.9 -9.5
v -3.9 5.9 -9.7
v -3.9 5.9 -9.8
v -3.9 6 -9.5
v -3.9 6 -9.7
v -3.9 6.1 -9.7
v -3.9 6.1 -9.8
v -3.9 6.2 -9.5
v -3.9 6.2 -9.7
v -4.4 5.9 -9.3
v -4.4 6 -9.3
v -4.4 6.2 -9.3
v -4.1 5.9 -9.3
v -4.1 6 -9.3
v -4.1 6.2 -9.3
v -4.5 5.8 -9.4
v -4.5 6 -9.4
v -4.5 6.3 -9.4
v -4.4 5.9 -9.4
v -4.4 6 -9.4
v -4.4 6.2 -9.4
v -4.1 5.9 -9.4
v -4.1 6 -9.4
v -4.1 6.2 -9.4
v -4 5.8 -9.4
v -4 6 -9.4
v -4 6.3 -9.4
v -4.6 5.9 -9.5
v -4.6 6 -9.5
v -4.6 6.2 -9.5
v -4.5 5.9 -9.5
v -4.5 6 -9.5
v -4.5 6.2 -9.5
v -4.4 5.7 -9.5
v -4.4 5.8 -9.5
v -4.4 6.3 -9.5
v -4.4 6.4 -9.5
v -4.1 5.7 -9.5
v -4.1 5.8 -9.5
v -4.1 6.3 -9.5
v -4.1 6.4 -9.5
v -4 5.9 -9.5
v -4 6 -9.5
v -4 6.2 -9.5
v -3.9 5.9 -9.5
v -3.9 6 -9.5
v -3.9 6.2 -9.5
v -4.5 4.6 -9.6
v -4.5 4.7 -9.6
v -4 4.6 -9.6
v -4 4.7 -9.6
v -4.3 6.4 -9.7
v -4.3 6.5 -9.7
v -4.2 6.4 -9.7
v -4.2 6.5 -9.7
v -4.3 4.7 -9.8
v -4.3 4.8 -9.8
v -4.3 6.5 -9.8
v -4.3 6.6 -9.8
v -4.2 4.7 -9.8
v -4.2 4.8 -9.8
v -4.2 6.5 -9.8
v -4.2 6.6 -9.8
v -4.4 4.7 -9.9
v -4.4 4.8 -9.9
v -4.3 4.7 -9.9
v -4.3 4.8 -9.9
v -4.3 5 -9.9
v -4.2 4.7 -9.9
v -4.2 4.8 -9.9
v -4.2 5 -9.9
v -4.1 4.7 -9.9
v -4.1 4.8 -9.9
v -4.3 5 -10
v -4.3 5.2 -10
v -4.3 6.4 -10
v -4.3 6.5 -10
v -4.2 5 -10
v -4.2 5.2 -10
v -4.2 6.4 -10
v -4.2 6.5 -10
v -4.3 5.2 -10.1
v -4.3 5.3 -10.1
v -4.3 6.3 -10.1
v -4.3 6.4 -10.1
v -4.2 5.2 -10.1
v -4.2 5.3 -10.1
v -4.2 6.3 -10.1
v -4.2 6.4 -10.1
v -4.3 5.3 -10.2
v -4.3 6.3 -10.2
v -4.2 5.3 -10.2
v -4.2 6.3 -10.2
v -4.6 6.1 -9.7
v -4.6 6.2 -9.7
v -4.5 6.1 -9.7
v -4.5 6.2 -9.7
v -4 6.1 -9.7
v -4 6.2 -9.7
v -3.9 6.1 -9.7
v -3.9 6.2 -9.7
v -4.6 5.9 -9.8
v -4.6 6.1 -9.8
v -4.5 5.9 -9.8
v -4.5 6.1 -9.8
v -4.4 5.7 -9.8
v -4.4 5.8 -9.8
v -4.4 6.3 -9.8
v -4.4 6.4 -9.8
v -4.3 6.4 -9.8
v -4.3 6.5 -9.8
v -4.2 6.4 -9.8
v -4.2 6.5 -9.8
v -4.1 5.7 -9.8
v -4.1 5.8 -9.8
v -4.1 6.3 -9.8
v -4.1 6.4 -9.8
v -4 5.9 -9.8
v -4 6.1 -9.8
v -3.9 5.9 -9.8
v -3.9 6.1 -9.8
v -4.5 5.8 -9.9
v -4.5 5.9 -9.9
v -4.5 6.3 -9.9
v -4.4 5.9 -9.9
v -4.4 6.1 -9.9
v -4.3 5.9 -9.9
v -4.3 6.1 -9.9
v -4.2 5.9 -9.9
v -4.2 6.1 -9.9
v -4.1 5.9 -9.9
v -4.1 6.1 -9.9
v -4 5.8 -9.9
v -4 5.9 -9.9
v -4 6.3 -9.9
v -4.4 4.7 -10
v -4.4 4.8 -10
v -4.4 5.9 -10
v -4.4 6.1 -10
v -4.3 4.7 -10
v -4.3 4.8 -10
v -4.3 5 -10
v -4.3 5.9 -10
v -4.3 6.1 -10
v -4.3 6.5 -10
v -4.3 6.6 -10
v -4.2 4.7 -10
v -4.2 4.8 -10
v -4.2 5 -10
v -4.2 5.9 -10
v -4.2 6.1 -10
v -4.2 6.5 -10
v -4.2 6.6 -10
v -4.1 4.7 -10
v -4.1 4.8 -10
v -4.1 5.9 -10
v -4.1 6.1 -10
v -4.3 4.7 -10.1
v -4.3 4.8 -10.1
v -4.3 5 -10.1
v -4.3 5.2 -10.1
v -4.3 6.4 -10.1
v -4.3 6.5 -10.1
v -4.2 4.7 -10.1
v -4.2 4.8 -10.1
v -4.2 5 -10.1
v -4.2 5.2 -10.1
v -4.2 6.4 -10.1
v -4.2 6.5 -10.1
v -4.3 5.2 -10.2
v -4.3 5.3 -10.2
v -4.3 6.3 -10.2
v -4.3 6.4 -10.2
v -4.2 5.2 -10.2
v -4.2 5.3 -10.2
v -4.2 6.3 -10.2
v -4.2 6.4 -10.2
v -4.5 4.6 -10.3
v -4.5 4.7 -10.3
v -4.3 5.3 -10.3
v -4.3 6.3 -10.3
v -4.2 5.3 -10.3
v -4.2 6.3 -10.3
v -4 4.6 -10.3
v -4 4.7 -10.3
v -4.5 4.6 -9.6
v -4 4.6 -9.6
v -4.5 4.6 -10.3
v -4 4.6 -10.3
v -4.3 5 -10
v -4.2 5 -10
v -4.3 5 -10.1
v -4.2 5 -10.1
v -4.3 5.2 -10.1
v -4.2 5.2 -10.1
v -4.3 5.2 -10.2
v -4.2 5.2 -10.2
v -4.3 5.3 -10.2
v -4.2 5.3 -10.2
v -4.3 5.3 -10.3
v -4.2 5.3 -10.3
v -4.4 5.7 -9.5
v -4.1 5.7 -9.5
v -4.4 5.7 -9.8
v -4.1 5.7 -9.8
v -4.5 5.8 -9.4
v -4 5.8 -9.4
v -4.4 5.8 -9.5
v -4.1 5.8 -9.5
v -4.4 5.8 -9.8
v -4.1 5.8 -9.8
v -4.5 5.8 -9.9
v -4 5.8 -9.9
v -4.4 5.9 -9.3
v -4.1 5.9 -9.3
v -4.4 5.9 -9.4
v -4.1 5.9 -9.4
v -4.6 5.9 -9.5
v -4.5 5.9 -9.5
v -4 5.9 -9.5
v -3.9 5.9 -9.5
v -4.6 5.9 -9.7
v -4.5 5.9 -9.7
v -4 5.9 -9.7
v -3.9 5.9 -9.7
v -4.6 5.9 -9.8
v -4.5 5.9 -9.8
v -4 5.9 -9.8
v -3.9 5.9 -9.8
v -4.4 5.9 -9.9
v -4.3 5.9 -9.9
v -4.2 5.9 -9.9
v -4.1 5.9 -9.9
v -4.4 5.9 -10
v -4.3 5.9 -10
v -4.2 5.9 -10
v -4.1 5.9 -10
v -4.3 6.3 -10.1
v -4.2 6.3 -10.1
v -4.3 6.3 -10.2
v -4.2 6.3 -10.2
v -4.3 6.4 -10
v -4.2 6.4 -10
v -4.3 6.4 -10.1
v -4.2 6.4 -10.1
v -4.3 6.5 -9.8
v -4.2 6.5 -9.8
v -4.3 6.5 -10
v -4.2 6.5 -10
v -4.5 4.7 -9.6
v -4 4.7 -9.6
v -4.3 4.7 -9.8
v -4.2 4.7 -9.8
v -4.4 4.7 -9.9
v -4.3 4.7 -9.9
v -4.2 4.7 -9.9
v -4.1 4.7 -9.9
v -4.4 4.7 -10
v -4.3 4.7 -10
v -4.2 4.7 -10
v -4.1 4.7 -10
v -4.3 4.7 -10.1
v -4.2 4.7 -10.1
v -4.5 4.7 -10.3
v -4 4.7 -10.3
v -4.3 4.8 -9.8
v -4.2 4.8 -9.8
v -4.4 4.8 -9.9
v -4.3 4.8 -9.9
v -4.2 4.8 -9.9
v -4.1 4.8 -9.9
v -4.4 4.8 -10
v -4.3 4.8 -10
v -4.2 4.8 -10
v -4.1 4.8 -10
v -4.3 4.8 -10.1
v -4.2 4.8 -10.1
v -4.3 5 -9.9
v -4.2 5 -9.9
v -4.3 5 -10
v -4.2 5 -10
v -4.3 5.2 -10
v -4.2 5.2 -10
v -4.3 5.2 -10.1
v -4.2 5.2 -10.1
v -4.3 5.3 -10.1
v -4.2 5.3 -10.1
v -4.3 5.3 -10.2
v -4.2 5.3 -10.2
v -4.6 6.1 -9.7
v -4.5 6.1 -9.7
v -4 6.1 -9.7
v -3.9 6.1 -9.7
v -4.6 6.1 -9.8
v -4.5 6.1 -9.8
v -4 6.1 -9.8
v -3.9 6.1 -9.8
v -4.4 6.1 -9.9
v -4.3 6.1 -9.9
v -4.2 6.1 -9.9
v -4.1 6.1 -9.9
v -4.4 6.1 -10
v -4.3 6.1 -10
v -4.2 6.1 -10
v -4.1 6.1 -10
v -4.4 6.2 -9.3
v -4.1 6.2 -9.3
v -4.4 6.2 -9.4
v -4.1 6.2 -9.4
v -4.6 6.2 -9.5
v -4.5 6.2 -9.5
v -4 6.2 -9.5
v -3.9 6.2 -9.5
v -4.6 6.2 -9.7
v -4.5 6.2 -9.7
v -4 6.2 -9.7
v -3.9 6.2 -9.7
v -4.5 6.3 -9.4
v -4 6.3 -9.4
v -4.4 6.3 -9.5
v -4.1 6.3 -9.5
v -4.4 6.3 -9.8
v -4.1 6.3 -9.8
v -4.5 6.3 -9.9
v -4 6.3 -9.9
v -4.3 6.3 -10.2
v -4.2 6.3 -10.2
v -4.3 6.3 -10.3
v -4.2 6.3 -10.3
v -4.4 6.4 -9.5
v -4.1 6.4 -9.5
v -4.3 6.4 -9.7
v -4.2 6.4 -9.7
v -4.4 6.4 -9.8
v -4.3 6.4 -9.8
v -4.2 6.4 -9.8
v -4.1 6.4 -9.8
v -4.3 6.4 -10.1
v -4.2 6.4 -10.1
v -4.3 6.4 -10.2
v -4.2 6.4 -10.2
v -4.3 6.5 -9.7
v -4.2 6.5 -9.7
v -4.3 6.5 -9.8
v -4.2 6.5 -9.8
v -4.3 6.5 -10
v -4.2 6.5 -10
v -4.3 6.5 -10.1
v -4.2 6.5 -10.1
v -4.3 6.6 -9.8
v -4.2 6.6 -9.8
v -4.3 6.6 -10
v -4.2 6.6 -10

# faces
f 4/2/1 2/2/1 1/2/1
f 5/1/1 3/1/1 2/1/1
f 5/2/1 2/2/1 4/2/1
f 6/1/1 5/1/1 4/1/1
f 6/1/1 3/1/1 5/1/1
f 7/1/1 3/1/1 6/1/1
f 8/1/1 6/1/1 4/1/1
f 9/1/1 6/1/1 8/1/1
f 12/3/1 11/3/1 10/3/1
f 13/3/1 11/3/1 12/3/1
f 16/2/1 15/2/1 14/2/1
f 17/2/1 15/2/1 16/2/1
f 18/2/1 15/2/1 17/2/1
f 19/2/1 15/2/1 18/2/1
f 20/2/1 16/2/1 14/2/1
f 21/2/1 16/2/1 20/2/1
f 23/1/1 19/1/1 18/1/1
f 24/1/1 21/1/1 20/1/1
f 25/1/1 23/1/1 22/1/1
f 26/1/1 24/1/1 20/1/1
f 26/1/1 25/1/1 24/1/1
f 27/1/1 23/1/1 25/1/1
f 27/1/1 25/1/1 26/1/1
f 27/1/1 19/1/1 23/1/1
f 30/1/1 29/1/1 28/1/1
f 31/1/1 29/1/1 30/1/1
f 34/2/1 33/2/1 32/2/1
f 35/2/1 33/2/1 34/2/1
f 40/2/1 37/2/1 36/2/1
f 41/2/1 37/2/1 40/2/1
f 42/1/1 39/1/1 38/1/1
f 43/1/1 39/1/1 42/1/1
f 44/1/1 41/1/1 40/1/1
f 45/1/1 41/1/1 44/1/1
f 48/1/1 47/1/1 46/1/1
f 49/1/1 47/1/1 48/1/1
f 54/1/1 51/1/1 50/1/1
f 55/1/1 51/1/1 54/1/1
f 56/1/1 53/1/1 52/1/1
f 57/1/1 53/1/1 56/1/1
f 58/3/1 56/3/1 55/3/1
f 59/3/1 56/3/1 58/3/1
f 61/3/1 60/3/1 59/3/1
f 62/3/1 60/3/1 61/3/1
f 64/3/1 63/3/1 62/3/1
f 65/3/1 63/3/1 64/3/1
f 68/3/1 66/3/1 65/3/1
f 69/3/1 66/3/1 68/3/1
f 73/3/1 68/3/1 67/3/1
f 74/3/1 68/3/1 73/3/1
f 75/3/1 71/3/1 70/3/1
f 76/3/1 71/3/1 75/3/1
f 77/3/1 73/3/1 72/3/1
f 78/3/1 73/3/1 77/3/1
f 79/3/1 77/3/1 76/3/1
f 80/3/1 77/3/1 79/3/1
f 81/1/2 82/1/2 85/1/2
f 85/1/2 82/1/2 86/1/2
f 83/1/2 84/1/2 87/1/2
f 87/1/2 84/1/2 88/1/2
f 86/3/2 87/3/2 89/3/2
f 89/3/2 87/3/2 90/3/2
f 90/3/2 91/3/2 92/3/2
f 92/3/2 91/3/2 93/3/2
f 93/3/2 94/3/2 95/3/2
f 95/3/2 94/3/2 96/3/2
f 96/3/2 97/3/2 99/3/2
f 99/3/2 97/3/2 100/3/2
f 98/3/2 99/3/2 104/3/2
f 104/3/2 99/3/2 105/3/2
f 101/3/2 102/3/2 106/3/2
f 106/3/2 102/3/2 107/3/2
f 103/3/2 104/3/2 108/3/2
f 108/3/2 104/3/2 109/3/2
f 107/3/2 108/3/2 110/3/2
f 110/3/2 108/3/2 111/3/2
f 112/1/2 113/1/2 114/1/2
f 114/1/2 113/1/2 115/1/2
f 116/2/2 117/2/2 118/2/2
f 118/2/2 117/2/2 119/2/2
f 120/2/2 121/2/2 124/2/2
f 124/2/2 121/2/2 125/2/2
f 122/1/2 123/1/2 126/1/2
f 126/1/2 123/1/2 127/1/2
f 124/1/2 125/1/2 128/1/2
f 128/1/2 125/1/2 129/1/2
f 130/1/2 131/1/2 132/1/2
f 132/1/2 131/1/2 133/1/2
f 134/3/2 135/3/2 136/3/2
f 136/3/2 135/3/2 137/3/2
f 138/2/2 139/2/2 140/2/2
f 140/2/2 139/2/2 141/2/2
f 141/2/2 139/2/2 142/2/2
f 142/2/2 139/2/2 143/2/2
f 138/2/2 140/2/2 144/2/2
f 144/2/2 140/2/2 145/2/2
f 142/1/2 143/1/2 147/1/2
f 144/1/2 145/1/2 148/1/2
f 146/1/2 147/1/2 149/1/2
f 144/1/2 148/1/2 150/1/2
f 148/1/2 149/1/2 150/1/2
f 149/1/2 147/1/2 151/1/2
f 150/1/2 149/1/2 151/1/2
f 147/1/2 143/1/2 151/1/2
f 152/2/2 153/2/2 155/2/2
f 153/1/2 154/1/2 156/1/2
f 155/2/2 153/2/2 156/2/2
f 155/1/2 156/1/2 157/1/2
f 156/1/2 154/1/2 157/1/2
f 157/1/2 154/1/2 158/1/2
f 155/1/2 157/1/2 159/1/2
f 159/1/2 157/1/2 160/1/2
f 164/2/3 162/2/3 161/2/3
f 165/1/3 163/1/3 162/1/3
f 165/2/3 162/2/3 164/2/3
f 166/1/3 163/1/3 165/1/3
f 170/2/3 168/2/3 167/2/3
f 171/1/3 169/1/3 168/1/3
f 171/2/3 168/2/3 170/2/3
f 172/1/3 169/1/3 171/1/3
f 173/2/3 170/2/3 167/2/3
f 175/1/3 169/1/3 172/1/3
f 176/2/3 174/2/3 173/2/3
f 176/2/3 173/2/3 167/2/3
f 177/1/3 175/1/3 174/1/3
f 177/2/3 174/2/3 176/2/3
f 178/1/3 169/1/3 175/1/3
f 178/1/3 175/1/3 177/1/3
f 182/2/3 180/2/3 179/2/3
f 183/1/3 181/1/3 180/1/3
f 183/2/3 180/2/3 182/2/3
f 184/1/3 181/1/3 183/1/3
f 189/2/3 186/2/3 185/2/3
f 190/2/3 186/2/3 189/2/3
f 191/1/3 188/1/3 187/1/3
f 192/1/3 188/1/3 191/1/3
f 196/2/3 194/2/3 193/2/3
f 197/1/3 195/1/3 194/1/3
f 197/2/3 194/2/3 196/2/3
f 198/1/3 195/1/3 197/1/3
f 201/3/3 200/3/3 199/3/3
f 202/3/3 200/3/3 201/3/3
f 205/3/3 204/3/3 203/3/3
f 206/3/3 204/3/3 205/3/3
f 211/1/3 208/1/3 207/1/3
f 212/1/3 208/1/3 211/1/3
f 213/3/3 210/3/3 209/3/3
f 214/3/3 210/3/3 213/3/3
f 217/1/3 216/1/3 215/1/3
f 218/1/3 216/1/3 217/1/3
f 221/3/3 219/3/3 218/3/3
f 222/3/3 219/3/3 221/3/3
f 223/1/3 221/1/3 220/1/3
f 224/1/3 221/1/3 223/1/3
f 229/3/3 226/3/3 225/3/3
f 230/3/3 226/3/3 229/3/3
f 231/3/3 228/3/3 227/3/3
f 232/3/3 228/3/3 231/3/3
f 237/3/3 234/3/3 233/3/3
f 238/3/3 234/3/3 237/3/3
f 239/3/3 236/3/3 235/3/3
f 240/3/3 236/3/3 239/3/3
f 243/3/3 242/3/3 241/3/3
f 244/3/3 242/3/3 243/3/3
f 245/1/4 246/1/4 247/1/4
f 247/1/4 246/1/4 248/1/4
f 249/1/4 250/1/4 251/1/4
f 251/1/4 250/1/4 252/1/4
f 253/1/4 254/1/4 255/1/4
f 255/1/4 254/1/4 256/1/4
f 259/1/4 260/1/4 261/1/4
f 259/1/4 261/1/4 263/1/4
f 261/3/4 262/3/4 263/3/4
f 263/3/4 262/3/4 264/3/4
f 257/2/4 258/2/4 265/2/4
f 265/2/4 258/2/4 266/2/4
f 259/1/4 263/1/4 267/1/4
f 267/1/4 263/1/4 268/1/4
f 269/1/4 270/1/4 271/1/4
f 271/1/4 270/1/4 272/1/4
f 273/2/4 274/2/4 276/2/4
f 274/1/4 275/1/4 276/1/4
f 276/1/4 275/1/4 277/1/4
f 273/2/4 276/2/4 278/2/4
f 277/1/4 275/1/4 279/1/4
f 273/2/4 278/2/4 280/2/4
f 279/1/4 275/1/4 281/1/4
f 273/2/4 280/2/4 282/2/4
f 281/1/4 275/1/4 283/1/4
f 273/2/4 282/2/4 284/2/4
f 282/1/4 283/1/4 285/1/4
f 284/2/4 282/2/4 285/2/4
f 283/1/4 275/1/4 286/1/4
f 285/1/4 283/1/4 286/1/4
f 287/1/4 288/1/4 291/1/4
f 291/1/4 288/1/4 292/1/4
f 289/1/4 290/1/4 294/1/4
f 294/1/4 290/1/4 295/1/4
f 292/3/4 293/3/4 299/3/4
f 299/3/4 293/3/4 300/3/4
f 294/3/4 295/3/4 301/3/4
f 301/3/4 295/3/4 302/3/4
f 296/3/4 297/3/4 303/3/4
f 303/3/4 297/3/4 304/3/4
f 298/1/4 299/1/4 305/1/4
f 305/1/4 299/1/4 306/1/4
f 301/1/4 302/1/4 307/1/4
f 307/1/4 302/1/4 308/1/4
f 309/1/4 310/1/4 315/1/4
f 315/1/4 310/1/4 316/1/4
f 311/3/4 312/3/4 317/3/4
f 317/3/4 312/3/4 318/3/4
f 313/3/4 314/3/4 319/3/4
f 319/3/4 314/3/4 320/3/4
f 321/3/4 322/3/4 325/3/4
f 325/3/4 322/3/4 326/3/4
f 323/3/4 324/3/4 327/3/4
f 327/3/4 324/3/4 328/3/4
f 331/3/4 332/3/4 333/3/4
f 333/3/4 332/3/4 334/3/4
f 329/3/4 330/3/4 335/3/4
f 335/3/4 330/3/4 336/3/4
f 339/3/5 338/3/5 337/3/5
f 340/3/5 338/3/5 339/3/5
f 343/3/5 342/3/5 341/3/5
f 344/3/5 342/3/5 343/3/5
f 347/3/5 346/3/5 345/3/5
f 348/3/5 346/3/5 347/3/5
f 351/3/5 350/3/5 349/3/5
f 352/3/5 350/3/5 351/3/5
f 355/2/5 354/2/5 353/2/5
f 356/2/5 354/2/5 355/2/5
f 359/2/5 358/2/5 357/2/5
f 360/2/5 358/2/5 359/2/5
f 361/2/5 359/2/5 357/2/5
f 362/2/5 358/2/5 360/2/5
f 363/2/5 361/2/5 357/2/5
f 363/2/5 362/2/5 361/2/5
f 364/2/5 358/2/5 362/2/5
f 364/2/5 362/2/5 363/2/5
f 367/2/5 366/2/5 365/2/5
f 368/2/5 366/2/5 367/2/5
f 373/2/5 370/2/5 369/2/5
f 374/2/5 370/2/5 373/2/5
f 375/2/5 372/2/5 371/2/5
f 376/2/5 372/2/5 375/2/5
f 377/1/5 374/1/5 373/1/5
f 378/1/5 374/1/5 377/1/5
f 379/1/5 376/1/5 375/1/5
f 380/1/5 376/1/5 379/1/5
f 385/1/5 382/1/5 381/1/5
f 386/3/5 383/3/5 382/3/5
f 386/1/5 382/1/5 385/1/5
f 387/1/5 384/1/5 383/1/5
f 387/3/5 383/3/5 386/3/5
f 388/1/5 384/1/5 387/1/5
f 391/3/5 390/3/5 389/3/5
f 392/3/5 390/3/5 391/3/5
f 395/3/5 394/3/5 393/3/5
f 396/3/5 394/3/5 395/3/5
f 399/3/5 398/3/5 397/3/5
f 400/3/5 398/3/5 399/3/5
f 401/3/6 402/3/6 403/3/6
f 403/3/6 402/3/6 404/3/6
f 401/3/6 403/3/6 405/3/6
f 405/3/6 403/3/6 406/3/6
f 404/3/6 402/3/6 407/3/6
f 407/3/6 402/3/6 408/3/6
f 401/3/6 405/3/6 409/3/6
f 408/3/6 402/3/6 412/3/6
f 409/3/6 410/3/6 413/3/6
f 411/3/6 412/3/6 414/3/6
f 409/3/6 413/3/6 415/3/6
f 413/3/6 414/3/6 415/3/6
f 401/3/6 409/3/6 415/3/6
f 414/3/6 412/3/6 416/3/6
f 415/3/6 414/3/6 416/3/6
f 412/3/6 402/3/6 416/3/6
f 417/1/6 418/1/6 420/1/6
f 420/1/6 418/1/6 421/1/6
f 419/1/6 420/1/6 423/1/6
f 423/1/6 420/1/6 424/1/6
f 421/1/6 422/1/6 425/1/6
f 425/1/6 422/1/6 426/1/6
f 424/1/6 425/1/6 427/1/6
f 427/1/6 425/1/6 428/1/6
f 429/3/6 430/3/6 431/3/6
f 431/3/6 430/3/6 432/3/6
f 433/3/6 434/3/6 435/3/6
f 435/3/6 434/3/6 436/3/6
f 437/3/6 438/3/6 439/3/6
f 439/3/6 438/3/6 440/3/6
f 441/1/6 442/1/6 445/1/6
f 445/1/6 442/1/6 446/1/6
f 443/1/6 444/1/6 447/1/6
f 447/1/6 444/1/6 448/1/6
f 449/1/6 450/1/6 453/1/6
f 450/3/6 451/3/6 454/3/6
f 453/1/6 450/1/6 454/1/6
f 451/1/6 452/1/6 455/1/6
f 454/3/6 451/3/6 455/3/6
f 455/1/6 452/1/6 456/1/6
f 457/1/6 458/1/6 459/1/6
f 459/1/6 458/1/6 460/1/6
f 461/1/6 462/1/6 465/1/6
f 465/1/6 462/1/6 466/1/6
f 463/1/6 464/1/6 467/1/6
f 467/1/6 464/1/6 468/1/6
f 469/1/6 470/1/6 471/1/6
f 471/1/6 470/1/6 472/1/6
f 469/1/6 471/1/6 473/1/6
f 472/1/6 470/1/6 474/1/6
f 469/1/6 473/1/6 475/1/6
f 473/1/6 474/1/6 475/1/6
f 474/1/6 470/1/6 476/1/6
f 475/1/6 474/1/6 476/1/6
f 477/3/6 478/3/6 479/3/6
f 479/3/6 478/3/6 480/3/6
f 481/1/6 482/1/6 483/1/6
f 483/1/6 482/1/6 484/1/6
f 481/1/6 483/1/6 485/1/6
f 485/1/6 483/1/6 486/1/6
f 484/1/6 482/1/6 487/1/6
f 487/1/6 482/1/6 488/1/6
f 489/3/6 490/3/6 491/3/6
f 491/3/6 490/3/6 492/3/6
f 493/3/6 494/3/6 495/3/6
f 495/3/6 494/3/6 496/3/6
f 497/3/6 498/3/6 499/3/6
f 499/3/6 498/3/6 500/3/6
f 501/3/6 502/3/6 503/3/6
f 503/3/6 502/3/6 504/3/6
