# MagicaVoxel @ Ephtracy

# group
o 

# material
mtllib Nha-6.mtl
usemtl palette

# normals
vn -1 0 0
vn 1 0 0
vn 0 0 1
vn 0 0 -1
vn 0 -1 0
vn 0 1 0

# texcoords
vt 0.767578 0.5
vt 0.771484 0.5
vt 0.779297 0.5

# verts
v 11.9 13.2 10.4
v 11.9 13.2 10.3
v 11.9 13.2 10.2
v 11.9 13.2 10.1
v 11.9 13.2 10
v 11.9 13.2 9.9
v 11.9 13.2 9.8
v 11.9 13.2 9.7
v 11.9 13.2 9.6
v 11.9 13.2 9.5
v 11.9 13.2 9.4
v 11.9 13.2 9.3
v 11.9 13.2 9.2
v 11.9 13.2 9.1
v 11.9 13.3 10.3
v 11.9 13.3 10.2
v 11.9 13.3 10.1
v 11.9 13.3 10
v 11.9 13.3 9.9
v 11.9 13.3 9.8
v 11.9 13.3 9.7
v 11.9 13.3 9.6
v 11.9 13.3 9.5
v 11.9 13.3 9.4
v 11.9 13.3 9.3
v 11.9 13.3 9.2
v 11.9 13.4 10.4
v 11.9 13.4 10.3
v 11.9 13.4 10.2
v 11.9 13.4 10.1
v 11.9 13.4 10
v 11.9 13.4 9.9
v 11.9 13.4 9.8
v 11.9 13.4 9.7
v 11.9 13.4 9.6
v 11.9 13.4 9.5
v 11.9 13.4 9.4
v 11.9 13.4 9.3
v 11.9 13.4 9.2
v 11.9 13.4 9.1
v 11.9 13.5 10.4
v 11.9 13.5 10.3
v 11.9 13.5 10.2
v 11.9 13.5 10.1
v 11.9 13.5 10
v 11.9 13.5 9.9
v 11.9 13.5 9.8
v 11.9 13.5 9.7
v 11.9 13.5 9.6
v 11.9 13.5 9.5
v 11.9 13.5 9.4
v 11.9 13.5 9.3
v 11.9 13.5 9.2
v 11.9 13.5 9.1
v 12 13.2 10.4
v 12 13.2 10.3
v 12 13.2 10.2
v 12 13.2 10.1
v 12 13.2 10
v 12 13.2 9.9
v 12 13.2 9.8
v 12 13.2 9.7
v 12 13.2 9.6
v 12 13.2 9.5
v 12 13.2 9.4
v 12 13.2 9.3
v 12 13.2 9.2
v 12 13.2 9.1
v 12 13.3 10.3
v 12 13.3 10.2
v 12 13.3 10.1
v 12 13.3 10
v 12 13.3 9.9
v 12 13.3 9.8
v 12 13.3 9.7
v 12 13.3 9.6
v 12 13.3 9.5
v 12 13.3 9.4
v 12 13.3 9.3
v 12 13.3 9.2
v 12 13.4 10.4
v 12 13.4 10.3
v 12 13.4 10.2
v 12 13.4 10.1
v 12 13.4 10
v 12 13.4 9.9
v 12 13.4 9.8
v 12 13.4 9.7
v 12 13.4 9.6
v 12 13.4 9.5
v 12 13.4 9.4
v 12 13.4 9.3
v 12 13.4 9.2
v 12 13.4 9.1
v 12 13.5 10.4
v 12 13.5 10.3
v 12 13.5 10.2
v 12 13.5 10.1
v 12 13.5 10
v 12 13.5 9.9
v 12 13.5 9.8
v 12 13.5 9.7
v 12 13.5 9.6
v 12 13.5 9.5
v 12 13.5 9.4
v 12 13.5 9.3
v 12 13.5 9.2
v 12 13.5 9.1
v 11.9 13.2 10.4
v 11.9 13.4 10.4
v 11.9 13.5 10.4
v 12 13.2 10.4
v 12 13.4 10.4
v 12 13.5 10.4
v 11.9 13.2 9.1
v 11.9 13.4 9.1
v 11.9 13.5 9.1
v 12 13.2 9.1
v 12 13.4 9.1
v 12 13.5 9.1
v 11.9 13.2 10.4
v 12 13.2 10.4
v 11.9 13.2 10.3
v 12 13.2 10.3
v 11.9 13.2 10.2
v 12 13.2 10.2
v 11.9 13.2 10.1
v 12 13.2 10.1
v 11.9 13.2 10
v 12 13.2 10
v 11.9 13.2 9.9
v 12 13.2 9.9
v 11.9 13.2 9.8
v 12 13.2 9.8
v 11.9 13.2 9.7
v 12 13.2 9.7
v 11.9 13.2 9.6
v 12 13.2 9.6
v 11.9 13.2 9.5
v 12 13.2 9.5
v 11.9 13.2 9.4
v 12 13.2 9.4
v 11.9 13.2 9.3
v 12 13.2 9.3
v 11.9 13.2 9.2
v 12 13.2 9.2
v 11.9 13.2 9.1
v 12 13.2 9.1
v 11.9 13.5 10.4
v 12 13.5 10.4
v 11.9 13.5 10.3
v 12 13.5 10.3
v 11.9 13.5 10.2
v 12 13.5 10.2
v 11.9 13.5 10.1
v 12 13.5 10.1
v 11.9 13.5 10
v 12 13.5 10
v 11.9 13.5 9.9
v 12 13.5 9.9
v 11.9 13.5 9.8
v 12 13.5 9.8
v 11.9 13.5 9.7
v 12 13.5 9.7
v 11.9 13.5 9.6
v 12 13.5 9.6
v 11.9 13.5 9.5
v 12 13.5 9.5
v 11.9 13.5 9.4
v 12 13.5 9.4
v 11.9 13.5 9.3
v 12 13.5 9.3
v 11.9 13.5 9.2
v 12 13.5 9.2
v 11.9 13.5 9.1
v 12 13.5 9.1

# faces
f 15/2/1 2/2/1 1/2/1
f 15/3/1 3/3/1 2/3/1
f 16/1/1 4/1/1 3/1/1
f 16/3/1 3/3/1 15/3/1
f 17/2/1 5/2/1 4/2/1
f 17/1/1 4/1/1 16/1/1
f 18/1/1 6/1/1 5/1/1
f 18/2/1 5/2/1 17/2/1
f 19/3/1 7/3/1 6/3/1
f 19/1/1 6/1/1 18/1/1
f 20/2/1 8/2/1 7/2/1
f 20/3/1 7/3/1 19/3/1
f 21/3/1 9/3/1 8/3/1
f 21/2/1 8/2/1 20/2/1
f 22/1/1 10/1/1 9/1/1
f 22/3/1 9/3/1 21/3/1
f 23/2/1 11/2/1 10/2/1
f 23/1/1 10/1/1 22/1/1
f 24/1/1 12/1/1 11/1/1
f 24/2/1 11/2/1 23/2/1
f 25/3/1 13/3/1 12/3/1
f 25/1/1 12/1/1 24/1/1
f 26/2/1 14/2/1 13/2/1
f 26/3/1 13/3/1 25/3/1
f 27/2/1 15/2/1 1/2/1
f 28/1/1 16/1/1 15/1/1
f 28/2/1 15/2/1 27/2/1
f 29/2/1 17/2/1 16/2/1
f 29/1/1 16/1/1 28/1/1
f 30/3/1 18/3/1 17/3/1
f 30/2/1 17/2/1 29/2/1
f 31/2/1 19/2/1 18/2/1
f 31/3/1 18/3/1 30/3/1
f 32/1/1 20/1/1 19/1/1
f 32/2/1 19/2/1 31/2/1
f 33/2/1 21/2/1 20/2/1
f 33/1/1 20/1/1 32/1/1
f 34/1/1 22/1/1 21/1/1
f 34/2/1 21/2/1 33/2/1
f 35/2/1 23/2/1 22/2/1
f 35/1/1 22/1/1 34/1/1
f 36/3/1 24/3/1 23/3/1
f 36/2/1 23/2/1 35/2/1
f 37/2/1 25/2/1 24/2/1
f 37/3/1 24/3/1 36/3/1
f 38/1/1 26/1/1 25/1/1
f 38/2/1 25/2/1 37/2/1
f 39/2/1 14/2/1 26/2/1
f 39/1/1 26/1/1 38/1/1
f 40/2/1 14/2/1 39/2/1
f 41/1/1 28/1/1 27/1/1
f 42/2/1 29/2/1 28/2/1
f 42/1/1 28/1/1 41/1/1
f 43/3/1 30/3/1 29/3/1
f 43/2/1 29/2/1 42/2/1
f 44/2/1 31/2/1 30/2/1
f 44/3/1 30/3/1 43/3/1
f 45/3/1 32/3/1 31/3/1
f 45/2/1 31/2/1 44/2/1
f 46/2/1 33/2/1 32/2/1
f 46/3/1 32/3/1 45/3/1
f 47/1/1 34/1/1 33/1/1
f 47/2/1 33/2/1 46/2/1
f 48/2/1 35/2/1 34/2/1
f 48/1/1 34/1/1 47/1/1
f 49/3/1 36/3/1 35/3/1
f 49/2/1 35/2/1 48/2/1
f 50/2/1 37/2/1 36/2/1
f 50/3/1 36/3/1 49/3/1
f 51/3/1 38/3/1 37/3/1
f 51/2/1 37/2/1 50/2/1
f 52/2/1 39/2/1 38/2/1
f 52/3/1 38/3/1 51/3/1
f 53/1/1 40/1/1 39/1/1
f 53/2/1 39/2/1 52/2/1
f 54/1/1 40/1/1 53/1/1
f 55/2/2 56/2/2 69/2/2
f 56/3/2 57/3/2 69/3/2
f 57/1/2 58/1/2 70/1/2
f 69/3/2 57/3/2 70/3/2
f 58/2/2 59/2/2 71/2/2
f 70/1/2 58/1/2 71/1/2
f 59/1/2 60/1/2 72/1/2
f 71/2/2 59/2/2 72/2/2
f 60/3/2 61/3/2 73/3/2
f 72/1/2 60/1/2 73/1/2
f 61/2/2 62/2/2 74/2/2
f 73/3/2 61/3/2 74/3/2
f 62/3/2 63/3/2 75/3/2
f 74/2/2 62/2/2 75/2/2
f 63/1/2 64/1/2 76/1/2
f 75/3/2 63/3/2 76/3/2
f 64/2/2 65/2/2 77/2/2
f 76/1/2 64/1/2 77/1/2
f 65/1/2 66/1/2 78/1/2
f 77/2/2 65/2/2 78/2/2
f 66/3/2 67/3/2 79/3/2
f 78/1/2 66/1/2 79/1/2
f 67/2/2 68/2/2 80/2/2
f 79/3/2 67/3/2 80/3/2
f 55/2/2 69/2/2 81/2/2
f 69/1/2 70/1/2 82/1/2
f 81/2/2 69/2/2 82/2/2
f 70/2/2 71/2/2 83/2/2
f 82/1/2 70/1/2 83/1/2
f 71/3/2 72/3/2 84/3/2
f 83/2/2 71/2/2 84/2/2
f 72/2/2 73/2/2 85/2/2
f 84/3/2 72/3/2 85/3/2
f 73/1/2 74/1/2 86/1/2
f 85/2/2 73/2/2 86/2/2
f 74/2/2 75/2/2 87/2/2
f 86/1/2 74/1/2 87/1/2
f 75/1/2 76/1/2 88/1/2
f 87/2/2 75/2/2 88/2/2
f 76/2/2 77/2/2 89/2/2
f 88/1/2 76/1/2 89/1/2
f 77/3/2 78/3/2 90/3/2
f 89/2/2 77/2/2 90/2/2
f 78/2/2 79/2/2 91/2/2
f 90/3/2 78/3/2 91/3/2
f 79/1/2 80/1/2 92/1/2
f 91/2/2 79/2/2 92/2/2
f 80/2/2 68/2/2 93/2/2
f 92/1/2 80/1/2 93/1/2
f 93/2/2 68/2/2 94/2/2
f 81/1/2 82/1/2 95/1/2
f 82/2/2 83/2/2 96/2/2
f 95/1/2 82/1/2 96/1/2
f 83/3/2 84/3/2 97/3/2
f 96/2/2 83/2/2 97/2/2
f 84/2/2 85/2/2 98/2/2
f 97/3/2 84/3/2 98/3/2
f 85/3/2 86/3/2 99/3/2
f 98/2/2 85/2/2 99/2/2
f 86/2/2 87/2/2 100/2/2
f 99/3/2 86/3/2 100/3/2
f 87/1/2 88/1/2 101/1/2
f 100/2/2 87/2/2 101/2/2
f 88/2/2 89/2/2 102/2/2
f 101/1/2 88/1/2 102/1/2
f 89/3/2 90/3/2 103/3/2
f 102/2/2 89/2/2 103/2/2
f 90/2/2 91/2/2 104/2/2
f 103/3/2 90/3/2 104/3/2
f 91/3/2 92/3/2 105/3/2
f 104/2/2 91/2/2 105/2/2
f 92/2/2 93/2/2 106/2/2
f 105/3/2 92/3/2 106/3/2
f 93/1/2 94/1/2 107/1/2
f 106/2/2 93/2/2 107/2/2
f 107/1/2 94/1/2 108/1/2
f 112/2/3 110/2/3 109/2/3
f 113/1/3 111/1/3 110/1/3
f 113/2/3 110/2/3 112/2/3
f 114/1/3 111/1/3 113/1/3
f 115/2/4 116/2/4 118/2/4
f 116/1/4 117/1/4 119/1/4
f 118/2/4 116/2/4 119/2/4
f 119/1/4 117/1/4 120/1/4
f 123/2/5 122/2/5 121/2/5
f 124/2/5 122/2/5 123/2/5
f 125/3/5 124/3/5 123/3/5
f 126/3/5 124/3/5 125/3/5
f 127/1/5 126/1/5 125/1/5
f 128/1/5 126/1/5 127/1/5
f 129/2/5 128/2/5 127/2/5
f 130/2/5 128/2/5 129/2/5
f 131/1/5 130/1/5 129/1/5
f 132/1/5 130/1/5 131/1/5
f 133/3/5 132/3/5 131/3/5
f 134/3/5 132/3/5 133/3/5
f 135/2/5 134/2/5 133/2/5
f 136/2/5 134/2/5 135/2/5
f 137/3/5 136/3/5 135/3/5
f 138/3/5 136/3/5 137/3/5
f 139/1/5 138/1/5 137/1/5
f 140/1/5 138/1/5 139/1/5
f 141/2/5 140/2/5 139/2/5
f 142/2/5 140/2/5 141/2/5
f 143/1/5 142/1/5 141/1/5
f 144/1/5 142/1/5 143/1/5
f 145/3/5 144/3/5 143/3/5
f 146/3/5 144/3/5 145/3/5
f 147/2/5 146/2/5 145/2/5
f 148/2/5 146/2/5 147/2/5
f 149/1/6 150/1/6 151/1/6
f 151/1/6 150/1/6 152/1/6
f 151/2/6 152/2/6 153/2/6
f 153/2/6 152/2/6 154/2/6
f 153/3/6 154/3/6 155/3/6
f 155/3/6 154/3/6 156/3/6
f 155/2/6 156/2/6 157/2/6
f 157/2/6 156/2/6 158/2/6
f 157/3/6 158/3/6 159/3/6
f 159/3/6 158/3/6 160/3/6
f 159/2/6 160/2/6 161/2/6
f 161/2/6 160/2/6 162/2/6
f 161/1/6 162/1/6 163/1/6
f 163/1/6 162/1/6 164/1/6
f 163/2/6 164/2/6 165/2/6
f 165/2/6 164/2/6 166/2/6
f 165/3/6 166/3/6 167/3/6
f 167/3/6 166/3/6 168/3/6
f 167/2/6 168/2/6 169/2/6
f 169/2/6 168/2/6 170/2/6
f 169/3/6 170/3/6 171/3/6
f 171/3/6 170/3/6 172/3/6
f 171/2/6 172/2/6 173/2/6
f 173/2/6 172/2/6 174/2/6
f 173/1/6 174/1/6 175/1/6
f 175/1/6 174/1/6 176/1/6
